<svg width="36" height="36" viewBox="0 0 36 36" fill="none" xmlns="http://www.w3.org/2000/svg">
<g clip-path="url(#clip0_166_3302)">
<path d="M28.7576 21.4597C29.3471 20.8994 29.8087 20.2185 30.1109 19.4634C30.4132 18.7084 30.5489 17.897 30.5088 17.0847C30.5088 13.7898 27.9644 12.3071 26.805 11.8068L5.15013 14.9247C4.67355 15.36 4.29445 15.8912 4.03773 16.4834C3.781 17.0756 3.65245 17.7154 3.66051 18.3608C3.66858 19.0062 3.81309 19.6426 4.08454 20.2282C4.35599 20.8138 4.74824 21.3354 5.23555 21.7586L7.9325 24.4068L26.8478 24.1664L28.7576 21.4597Z" fill="#F29C1F"/>
<path d="M26.2378 20.1356C25.4286 20.1356 24.6526 20.457 24.0805 21.0292C23.5084 21.6013 23.1869 22.3773 23.1869 23.1864C23.1869 22.3773 22.8655 21.6013 22.2933 21.0292C21.7212 20.457 20.9452 20.1356 20.1361 20.1356C19.3269 20.1356 18.5509 20.457 17.9788 21.0292C17.4067 21.6013 17.0852 22.3773 17.0852 23.1864C17.0852 22.3773 16.7638 21.6013 16.1917 21.0292C15.6195 20.457 14.8435 20.1356 14.0344 20.1356C13.2252 20.1356 12.4492 20.457 11.8771 21.0292C11.305 21.6013 10.9835 22.3773 10.9835 23.1864C10.9835 22.3773 10.6621 21.6013 10.09 21.0292C9.51781 20.457 8.74182 20.1356 7.93268 20.1356C7.12355 20.1356 6.34755 20.457 5.77541 21.0292C5.20326 21.6013 4.88184 22.3773 4.88184 23.1864C4.88184 26.0603 6.50489 30.8929 8.22556 35.2251C8.31461 35.4536 8.47062 35.6498 8.67314 35.7881C8.87566 35.9264 9.11525 36.0003 9.36048 36H24.81C25.3121 36 25.7624 35.6925 25.9449 35.2251C27.6656 30.8929 29.2886 26.0603 29.2886 23.1864C29.2886 22.3773 28.9672 21.6013 28.395 21.0292C27.8229 20.457 27.0469 20.1356 26.2378 20.1356Z" fill="#894B9D"/>
<path d="M23.1867 23.1864C23.1867 23.1864 23.1867 30.5085 21.9663 36H17.085V23.1864C17.085 22.3773 17.4064 21.6013 17.9785 21.0292C18.5507 20.457 19.3267 20.1356 20.1358 20.1356C20.9449 20.1356 21.7209 20.457 22.2931 21.0292C22.8652 21.6013 23.1867 22.3773 23.1867 23.1864Z" fill="#FF5364"/>
<path d="M17.0851 23.1864V36H12.2037C10.9834 30.5085 10.9834 23.1864 10.9834 23.1864C10.9834 22.3773 11.3048 21.6013 11.877 21.0292C12.4491 20.457 13.2251 20.1356 14.0342 20.1356C14.8434 20.1356 15.6194 20.457 16.1915 21.0292C16.7637 21.6013 17.0851 22.3773 17.0851 23.1864Z" fill="#894B9D"/>
<path d="M12.2039 36H9.36048C9.11525 36.0003 8.87566 35.9264 8.67314 35.7881C8.47062 35.6498 8.31461 35.4536 8.22556 35.2251C6.50489 30.8929 4.88184 26.0603 4.88184 23.1864C4.88184 22.3773 5.20326 21.6013 5.77541 21.0292C6.34755 20.457 7.12355 20.1356 7.93268 20.1356C8.74182 20.1356 9.51781 20.457 10.09 21.0292C10.6621 21.6013 10.9835 22.3773 10.9835 23.1864C10.9835 23.1864 10.9835 30.5085 12.2039 36Z" fill="#FF5364"/>
<path d="M15.8649 7.90779C14.2278 8.03593 12.5986 8.24705 10.9835 8.54237C5.56523 9.62847 4.88184 13.4237 4.88184 14.0339C4.88184 15.2542 6.10217 16.4746 11.5937 16.4746C14.2459 16.4767 16.8899 16.179 19.4753 15.5874C21.7329 15.0681 24.6617 14.4988 26.2329 12.6403C27.0412 11.6594 27.4754 10.4235 27.4581 9.15254C27.4581 6.10169 25.0174 3.66101 25.0174 3.66101C23.6262 6.44949 21.2344 7.24881 18.3056 7.64542L15.8649 7.90779Z" fill="#F0C419"/>
<path d="M15.8652 13.4359V5.49152C15.8662 5.16816 15.9951 4.85832 16.2237 4.62968C16.4524 4.40103 16.7622 4.27214 17.0856 4.27118C17.4085 4.27357 17.7175 4.40291 17.9458 4.63126C18.1742 4.8596 18.3035 5.1686 18.3059 5.49152V12.8929L15.8652 13.4359Z" fill="#FF5364"/>
<path d="M18.3059 3.05085C18.3059 3.3745 18.1773 3.6849 17.9485 3.91376C17.7196 4.14261 17.4092 4.27119 17.0856 4.27119C16.7619 4.27119 16.4515 4.14261 16.2227 3.91376C15.9938 3.6849 15.8652 3.3745 15.8652 3.05085C15.8652 2.37966 17.0856 0.610168 17.0856 0.610168C17.0856 0.610168 18.3059 2.37966 18.3059 3.05085Z" fill="#F0C419"/>
<path d="M14.6441 14.6441C14.5131 14.6442 14.3855 14.6022 14.2802 14.5242C14.1749 14.4463 14.0975 14.3365 14.0595 14.2111C14.0215 14.0857 14.0248 13.9514 14.069 13.8281C14.1131 13.7048 14.1959 13.5989 14.3049 13.5262C16.2672 12.218 19.3931 12.2034 19.5255 12.2034C19.6873 12.2034 19.8425 12.2677 19.9569 12.3821C20.0714 12.4965 20.1356 12.6517 20.1356 12.8136C20.1356 12.9754 20.0714 13.1306 19.9569 13.245C19.8425 13.3594 19.6873 13.4237 19.5255 13.4237C19.4962 13.4237 16.6339 13.4402 14.9822 14.5416C14.882 14.6083 14.7644 14.644 14.6441 14.6441Z" fill="#F29C1F"/>
<path d="M9.76294 1.83051C9.60112 1.83051 9.44592 1.76622 9.33149 1.65179C9.21706 1.53736 9.15277 1.38217 9.15277 1.22034V0.610169C9.15277 0.448342 9.21706 0.293143 9.33149 0.178715C9.44592 0.0642855 9.60112 0 9.76294 0C9.92477 0 10.08 0.0642855 10.1944 0.178715C10.3088 0.293143 10.3731 0.448342 10.3731 0.610169V1.22034C10.3731 1.38217 10.3088 1.53736 10.1944 1.65179C10.08 1.76622 9.92477 1.83051 9.76294 1.83051ZM11.5935 3.05085H10.9833C10.8215 3.05085 10.6663 2.98656 10.5518 2.87213C10.4374 2.7577 10.3731 2.6025 10.3731 2.44068C10.3731 2.27885 10.4374 2.12365 10.5518 2.00922C10.6663 1.89479 10.8215 1.83051 10.9833 1.83051H11.5935C11.7553 1.83051 11.9105 1.89479 12.0249 2.00922C12.1393 2.12365 12.2036 2.27885 12.2036 2.44068C12.2036 2.6025 12.1393 2.7577 12.0249 2.87213C11.9105 2.98656 11.7553 3.05085 11.5935 3.05085ZM9.76294 4.88136C9.60112 4.88136 9.44592 4.81707 9.33149 4.70264C9.21706 4.58821 9.15277 4.43301 9.15277 4.27119V3.66102C9.15277 3.49919 9.21706 3.34399 9.33149 3.22956C9.44592 3.11513 9.60112 3.05085 9.76294 3.05085C9.92477 3.05085 10.08 3.11513 10.1944 3.22956C10.3088 3.34399 10.3731 3.49919 10.3731 3.66102V4.27119C10.3731 4.43301 10.3088 4.58821 10.1944 4.70264C10.08 4.81707 9.92477 4.88136 9.76294 4.88136ZM8.5426 3.05085H7.93244C7.77061 3.05085 7.61541 2.98656 7.50098 2.87213C7.38655 2.7577 7.32227 2.6025 7.32227 2.44068C7.32227 2.27885 7.38655 2.12365 7.50098 2.00922C7.61541 1.89479 7.77061 1.83051 7.93244 1.83051H8.5426C8.70443 1.83051 8.85963 1.89479 8.97406 2.00922C9.08849 2.12365 9.15277 2.27885 9.15277 2.44068C9.15277 2.6025 9.08849 2.7577 8.97406 2.87213C8.85963 2.98656 8.70443 3.05085 8.5426 3.05085Z" fill="#2FA8CC"/>
<path d="M32.3391 9.15255C32.1773 9.15255 32.0221 9.08826 31.9077 8.97383C31.7932 8.8594 31.7289 8.7042 31.7289 8.54238V7.93221C31.7289 7.77038 31.7932 7.61518 31.9077 7.50075C32.0221 7.38632 32.1773 7.32204 32.3391 7.32204C32.5009 7.32204 32.6561 7.38632 32.7706 7.50075C32.885 7.61518 32.9493 7.77038 32.9493 7.93221V8.54238C32.9493 8.7042 32.885 8.8594 32.7706 8.97383C32.6561 9.08826 32.5009 9.15255 32.3391 9.15255ZM34.1696 10.3729H33.5595C33.3976 10.3729 33.2424 10.3086 33.128 10.1942C33.0136 10.0797 32.9493 9.92454 32.9493 9.76271C32.9493 9.60089 33.0136 9.44569 33.128 9.33126C33.2424 9.21683 33.3976 9.15255 33.5595 9.15255H34.1696C34.3315 9.15255 34.4867 9.21683 34.6011 9.33126C34.7155 9.44569 34.7798 9.60089 34.7798 9.76271C34.7798 9.92454 34.7155 10.0797 34.6011 10.1942C34.4867 10.3086 34.3315 10.3729 34.1696 10.3729ZM32.3391 12.2034C32.1773 12.2034 32.0221 12.1391 31.9077 12.0247C31.7932 11.9102 31.7289 11.7551 31.7289 11.5932V10.9831C31.7289 10.8212 31.7932 10.666 31.9077 10.5516C32.0221 10.4372 32.1773 10.3729 32.3391 10.3729C32.5009 10.3729 32.6561 10.4372 32.7706 10.5516C32.885 10.666 32.9493 10.8212 32.9493 10.9831V11.5932C32.9493 11.7551 32.885 11.9102 32.7706 12.0247C32.6561 12.1391 32.5009 12.2034 32.3391 12.2034ZM31.1188 10.3729H30.5086C30.3468 10.3729 30.1916 10.3086 30.0772 10.1942C29.9627 10.0797 29.8984 9.92454 29.8984 9.76271C29.8984 9.60089 29.9627 9.44569 30.0772 9.33126C30.1916 9.21683 30.3468 9.15255 30.5086 9.15255H31.1188C31.2806 9.15255 31.4358 9.21683 31.5502 9.33126C31.6647 9.44569 31.7289 9.60089 31.7289 9.76271C31.7289 9.92454 31.6647 10.0797 31.5502 10.1942C31.4358 10.3086 31.2806 10.3729 31.1188 10.3729Z" fill="#FF5364"/>
<path d="M29.2883 1.83051C29.1265 1.83051 28.9713 1.76622 28.8569 1.65179C28.7424 1.53736 28.6782 1.38217 28.6782 1.22034V0.610169C28.6782 0.448342 28.7424 0.293143 28.8569 0.178715C28.9713 0.0642855 29.1265 0 29.2883 0C29.4502 0 29.6054 0.0642855 29.7198 0.178715C29.8342 0.293143 29.8985 0.448342 29.8985 0.610169V1.22034C29.8985 1.38217 29.8342 1.53736 29.7198 1.65179C29.6054 1.76622 29.4502 1.83051 29.2883 1.83051ZM31.1188 3.05085H30.5087C30.3468 3.05085 30.1916 2.98656 30.0772 2.87213C29.9628 2.7577 29.8985 2.6025 29.8985 2.44068C29.8985 2.27885 29.9628 2.12365 30.0772 2.00922C30.1916 1.89479 30.3468 1.83051 30.5087 1.83051H31.1188C31.2807 1.83051 31.4359 1.89479 31.5503 2.00922C31.6647 2.12365 31.729 2.27885 31.729 2.44068C31.729 2.6025 31.6647 2.7577 31.5503 2.87213C31.4359 2.98656 31.2807 3.05085 31.1188 3.05085ZM29.2883 4.88136C29.1265 4.88136 28.9713 4.81707 28.8569 4.70264C28.7424 4.58821 28.6782 4.43301 28.6782 4.27119V3.66102C28.6782 3.49919 28.7424 3.34399 28.8569 3.22956C28.9713 3.11513 29.1265 3.05085 29.2883 3.05085C29.4502 3.05085 29.6054 3.11513 29.7198 3.22956C29.8342 3.34399 29.8985 3.49919 29.8985 3.66102V4.27119C29.8985 4.43301 29.8342 4.58821 29.7198 4.70264C29.6054 4.81707 29.4502 4.88136 29.2883 4.88136ZM28.068 3.05085H27.4578C27.296 3.05085 27.1408 2.98656 27.0264 2.87213C26.9119 2.7577 26.8477 2.6025 26.8477 2.44068C26.8477 2.27885 26.9119 2.12365 27.0264 2.00922C27.1408 1.89479 27.296 1.83051 27.4578 1.83051H28.068C28.2298 1.83051 28.385 1.89479 28.4995 2.00922C28.6139 2.12365 28.6782 2.27885 28.6782 2.44068C28.6782 2.6025 28.6139 2.7577 28.4995 2.87213C28.385 2.98656 28.2298 3.05085 28.068 3.05085Z" fill="#F0C419"/>
<path d="M3.66138 6.71187C3.49955 6.71187 3.34435 6.64759 3.22993 6.53316C3.1155 6.41873 3.05121 6.26353 3.05121 6.1017V5.49153C3.05121 5.32971 3.1155 5.17451 3.22993 5.06008C3.34435 4.94565 3.49955 4.88136 3.66138 4.88136C3.82321 4.88136 3.97841 4.94565 4.09284 5.06008C4.20726 5.17451 4.27155 5.32971 4.27155 5.49153V6.1017C4.27155 6.26353 4.20726 6.41873 4.09284 6.53316C3.97841 6.64759 3.82321 6.71187 3.66138 6.71187ZM5.49189 7.93221H4.88172C4.71989 7.93221 4.56469 7.86792 4.45027 7.7535C4.33584 7.63907 4.27155 7.48387 4.27155 7.32204C4.27155 7.16021 4.33584 7.00501 4.45027 6.89059C4.56469 6.77616 4.71989 6.71187 4.88172 6.71187H5.49189C5.65372 6.71187 5.80892 6.77616 5.92334 6.89059C6.03777 7.00501 6.10206 7.16021 6.10206 7.32204C6.10206 7.48387 6.03777 7.63907 5.92334 7.7535C5.80892 7.86792 5.65372 7.93221 5.49189 7.93221ZM3.66138 9.76272C3.49955 9.76272 3.34435 9.69843 3.22993 9.584C3.1155 9.46957 3.05121 9.31438 3.05121 9.15255V8.54238C3.05121 8.38055 3.1155 8.22535 3.22993 8.11092C3.34435 7.9965 3.49955 7.93221 3.66138 7.93221C3.82321 7.93221 3.97841 7.9965 4.09284 8.11092C4.20726 8.22535 4.27155 8.38055 4.27155 8.54238V9.15255C4.27155 9.31438 4.20726 9.46957 4.09284 9.584C3.97841 9.69843 3.82321 9.76272 3.66138 9.76272ZM2.44104 7.93221H1.83087C1.66905 7.93221 1.51385 7.86792 1.39942 7.7535C1.28499 7.63907 1.2207 7.48387 1.2207 7.32204C1.2207 7.16021 1.28499 7.00501 1.39942 6.89059C1.51385 6.77616 1.66905 6.71187 1.83087 6.71187H2.44104C2.60287 6.71187 2.75807 6.77616 2.8725 6.89059C2.98693 7.00501 3.05121 7.16021 3.05121 7.32204C3.05121 7.48387 2.98693 7.63907 2.8725 7.7535C2.75807 7.86792 2.60287 7.93221 2.44104 7.93221Z" fill="#955BA5"/>
</g>
<defs>
<clipPath id="clip0_166_3302">
<rect width="36" height="36" fill="white"/>
</clipPath>
</defs>
</svg>
