<svg width="80" height="80" viewBox="0 0 80 80" fill="none" xmlns="http://www.w3.org/2000/svg">
<g clip-path="url(#clip0_400_1273)">
<path d="M75.2546 67.2465C75.1256 68.8761 74.9775 70.5041 74.8103 72.1301C74.7653 72.5744 74.7186 73.0187 74.6703 73.4629C74.3564 76.3554 72.0386 78.6234 69.1396 78.852C49.7445 80.3828 30.2589 80.3828 10.8638 78.852C7.96487 78.6234 5.6469 76.3554 5.33299 73.4629C5.28471 73.0187 5.23799 72.5761 5.19299 72.1317C5.02578 70.5056 4.8777 68.8777 4.74877 67.2481V67.2465C3.65737 53.5951 3.85377 39.9469 5.33315 26.2954C5.64705 23.4029 7.96487 21.135 10.8639 20.9064C30.259 19.3756 49.7446 19.3756 69.1397 20.9064C72.0386 21.135 74.3566 23.4029 74.6705 26.2954C76.1496 39.9469 76.3458 53.5967 75.2546 67.2465Z" fill="#F9DA41"/>
<path d="M12.1288 78.9474C11.706 78.917 11.2849 78.8851 10.8637 78.8516C7.96383 78.6235 5.64633 76.3548 5.3332 73.4626C3.62852 57.7407 3.62852 42.0173 5.3332 26.2954C5.64648 23.4032 7.96383 21.1359 10.8637 20.9063C11.2849 20.8729 11.7062 20.8409 12.1288 20.8105C11.3821 21.3263 10.7555 21.997 10.2915 22.7769C9.82756 23.5568 9.53726 24.4276 9.44039 25.3299C7.66586 41.6965 7.66586 58.0616 9.44039 74.4282C9.53724 75.3305 9.82754 76.2013 10.2915 76.9812C10.7554 77.7611 11.3821 78.4317 12.1288 78.9474ZM75.2535 67.2465C75.1246 68.876 74.9765 70.504 74.8093 72.1301C73.6616 68.1687 69.0387 61.8041 62.2734 55.0307C61.8034 54.5591 61.8034 53.7945 62.2749 53.3245C62.3871 53.2123 62.5202 53.1233 62.6668 53.0626C62.8134 53.002 62.9705 52.9708 63.1291 52.971C63.2878 52.9711 63.4448 53.0026 63.5913 53.0635C63.7378 53.1244 63.8708 53.2136 63.9827 53.326C66.6773 56.0238 70.513 60.1429 73.4748 64.4359C74.1524 65.4195 74.7465 66.3563 75.2535 67.2465Z" fill="#EDC932"/>
<path d="M17.7262 55.0309C10.9609 61.8075 6.33797 68.1705 5.19031 72.1319C5.02311 70.5058 4.87502 68.8778 4.74609 67.2483V67.2467C5.25469 66.3566 5.84703 65.4197 6.52469 64.4362C9.48797 60.1433 13.3222 56.0242 16.0167 53.3264C16.1286 53.214 16.2616 53.1247 16.4081 53.0638C16.5546 53.0028 16.7117 52.9714 16.8703 52.9712C17.0289 52.9711 17.1861 53.0022 17.3326 53.0629C17.4792 53.1236 17.6124 53.2126 17.7245 53.3248C18.1962 53.7947 18.1962 54.5592 17.7262 55.0309ZM74.6656 26.2956V26.2861C74.348 23.3984 72.033 21.1353 69.1361 20.9069C49.7415 19.3758 30.2563 19.3758 10.8617 20.9069C7.96219 21.1355 5.64562 23.4022 5.33125 26.2934L5.33188 26.2956C4.98734 30.2278 8.51406 36.3537 13.8916 42.417C14.0783 42.6262 14.2666 41.163 14.4566 41.3723C14.603 41.5348 14.7511 41.6959 14.9023 41.86C17.7497 44.9342 21.0428 47.957 24.518 50.6306C29.5687 54.5161 35.0011 57.6612 39.9987 59.1533C45.0866 57.6339 50.6283 54.4003 55.7564 50.4166C57.0561 49.4058 58.3234 48.3543 59.5566 47.2634C61.7183 45.3545 63.7544 43.3441 65.5908 41.3176C65.7647 41.1261 65.9369 42.607 66.1058 42.4155C71.4836 36.3522 75.0102 30.2262 74.6656 26.2956Z" fill="#EDC932"/>
<path d="M66.1103 42.4154C65.94 42.6081 65.7683 42.7996 65.5953 42.9899C63.7588 45.0163 61.7227 47.0266 59.5611 48.9357C58.3279 50.0265 57.0606 51.078 55.761 52.0888C50.6328 56.0725 45.0911 59.3061 40.0033 60.8255C35.0056 59.3335 29.5733 56.1883 24.5225 52.3029C21.0475 49.6294 17.7542 46.6066 14.9069 43.5322C14.567 43.1631 14.23 42.7913 13.8961 42.4168C13.6029 34.4766 13.6131 26.5281 13.9267 18.5886L32.995 0.127065C42.1856 -0.20606 51.3763 0.115815 60.5669 1.09285C63.1228 1.36488 65.1252 3.41222 65.3296 5.97472C66.2983 18.0961 66.559 30.2636 66.1103 42.4154Z" fill="#F1F4F6"/>
<path d="M44.7285 16.0335L44.8979 14.7C44.8979 14.7 45.3459 11.172 43.4419 9.24699C41.5379 7.32199 38.0029 7.73499 38.0029 7.73499C38.0029 7.73499 37.5549 11.27 39.4589 13.188C39.5009 13.23 39.5429 13.272 39.5849 13.307L44.7285 16.0335Z" fill="#4FBA6F"/>
<path d="M44.8992 17.6553C44.7136 17.6553 44.5355 17.5816 44.4042 17.4503C44.273 17.319 44.1992 17.141 44.1992 16.9553V14.6999C44.1992 14.5165 44.2335 10.1758 47.2043 7.20504C47.3363 7.07753 47.5132 7.00698 47.6967 7.00857C47.8802 7.01017 48.0558 7.08378 48.1856 7.21357C48.3154 7.34336 48.389 7.51892 48.3906 7.70246C48.3922 7.886 48.3216 8.06282 48.1941 8.19484C45.6412 10.7477 45.5992 14.6614 45.5992 14.6999V16.9546C45.5993 17.0466 45.5813 17.1377 45.5461 17.2227C45.511 17.3077 45.4595 17.385 45.3944 17.4501C45.3294 17.5151 45.2522 17.5668 45.1673 17.602C45.0823 17.6372 44.9912 17.6553 44.8992 17.6553Z" fill="#805333"/>
<path d="M57.5008 23.0999C57.5008 28.2379 54.0568 33.9639 50.4798 35.7769L42.1778 36.3789C38.7828 36.9459 34.5898 32.4099 32.9728 27.2579C32.5419 25.9134 32.3154 24.5117 32.3008 23.0999C32.3008 16.8839 35.1008 13.2999 39.3008 13.2999C42.6608 13.2999 42.3808 14.6999 44.9008 14.6999C47.4208 14.6999 47.1408 13.2999 50.5008 13.2999C51.3675 13.2817 52.2279 13.4512 53.0229 13.7968C53.8179 14.1424 54.5288 14.6558 55.1068 15.3019C56.6188 16.9609 57.5008 19.6209 57.5008 23.0999Z" fill="#C03A2B"/>
<path d="M55.1068 15.3019C55.0287 17.8479 54.2832 20.3288 52.9451 22.4962C51.6069 24.6636 49.723 26.4416 47.4819 27.6522C45.2407 28.8628 42.7209 29.4636 40.1746 29.3944C37.6283 29.3252 35.1449 28.5884 32.9728 27.2579C32.5419 25.9133 32.3154 24.5117 32.3008 23.0999C32.3008 16.8839 35.1008 13.2999 39.3008 13.2999C42.6608 13.2999 42.3808 14.6999 44.9008 14.6999C47.4208 14.6999 47.1408 13.2999 50.5008 13.2999C51.3675 13.2817 52.2279 13.4512 53.0229 13.7968C53.8179 14.1424 54.5288 14.6558 55.1068 15.3019Z" fill="#E64C3C"/>
<path d="M59.6762 32.9908L50.9402 41.8878C50.4471 42.3879 49.7802 42.6788 49.0782 42.6998H36.4782C36.0436 42.7004 35.6151 42.8019 35.2264 42.9963C34.8377 43.1906 34.4994 43.4725 34.2382 43.8198L31.2982 47.7398C31.1678 47.9137 30.9987 48.0548 30.8043 48.152C30.6099 48.2492 30.3956 48.2998 30.1782 48.2998H21.0992C20.7283 48.2987 20.3728 48.1509 20.1105 47.8886C19.8482 47.6263 19.7003 47.2708 19.6992 46.8998V44.6948C19.6991 44.5045 19.7383 44.3161 19.8141 44.1415C19.89 43.9669 20.001 43.8097 20.1402 43.6798C21.9462 41.9788 28.4072 36.0708 28.7782 35.6998C29.8511 34.5555 31.1546 33.6517 32.6026 33.0484C34.0506 32.4451 35.6102 32.1559 37.1782 32.1998C38.3125 32.1958 39.4124 32.5896 40.2862 33.3128C40.5266 33.5041 40.8261 33.6056 41.1332 33.5998H48.2662C48.7566 33.5931 49.2353 33.7498 49.6269 34.0451C50.0185 34.3403 50.3008 34.7575 50.4292 35.2308L56.8132 29.8898C57.2291 29.5406 57.7636 29.3649 58.3056 29.3993C58.8477 29.4337 59.3556 29.6755 59.7241 30.0745C60.0925 30.4736 60.2931 30.9992 60.2842 31.5423C60.2753 32.0853 60.0575 32.6041 59.6762 32.9908Z" fill="#FDD7AD"/>
<path d="M48.3766 38.4999H40.6766C40.4909 38.4999 40.3129 38.4261 40.1816 38.2949C40.0503 38.1636 39.9766 37.9855 39.9766 37.7999C39.9766 37.6142 40.0503 37.4362 40.1816 37.3049C40.3129 37.1736 40.4909 37.0999 40.6766 37.0999H48.3766C48.5672 37.1011 48.7561 37.0631 48.9315 36.9884C49.1069 36.9137 49.2651 36.8038 49.3963 36.6655C49.5276 36.5272 49.629 36.3634 49.6944 36.1843C49.7598 36.0052 49.7878 35.8146 49.7766 35.6243C49.7732 35.5682 49.7669 35.5124 49.7577 35.457C49.7159 35.3343 49.7094 35.2024 49.7388 35.0762C49.7683 34.9499 49.8325 34.8345 49.9243 34.743L49.9313 34.736C50.0194 34.6479 50.1295 34.585 50.2502 34.5537C50.3708 34.5224 50.4976 34.5239 50.6175 34.558C50.7374 34.5921 50.846 34.6576 50.9321 34.7477C51.0182 34.8378 51.0787 34.9493 51.1073 35.0706C51.1447 35.2266 51.1681 35.3857 51.1773 35.5459C51.1991 35.9266 51.1429 36.3077 51.0119 36.6658C50.8809 37.0239 50.6781 37.3514 50.4158 37.6281C50.1535 37.9048 49.8373 38.1249 49.4867 38.2749C49.1361 38.4248 48.7579 38.5014 48.3766 38.4999Z" fill="#F9C795"/>
<path d="M35.0984 23.7999C34.9128 23.7999 34.7347 23.7262 34.6035 23.5949C34.4722 23.4636 34.3984 23.2856 34.3984 23.0999C34.3984 21.2932 34.7484 15.3999 39.2984 15.3999C39.4841 15.3999 39.6621 15.4737 39.7934 15.6049C39.9247 15.7362 39.9984 15.9143 39.9984 16.0999C39.9984 16.2856 39.9247 16.4636 39.7934 16.5949C39.6621 16.7262 39.4841 16.7999 39.2984 16.7999C36.0504 16.7999 35.7984 21.6222 35.7984 23.0999C35.7984 23.2856 35.7247 23.4636 35.5934 23.5949C35.4621 23.7262 35.2841 23.7999 35.0984 23.7999Z" fill="#FB7B76"/>
<path d="M66.2947 34.7972C66.2638 37.3373 66.2016 39.8768 66.108 42.4153C65.9376 42.6081 65.766 42.7996 65.593 42.9899C63.7564 45.0163 61.7203 47.0267 59.5588 48.9357C58.3256 50.0265 57.0582 51.078 55.7586 52.0888C50.6305 56.0725 45.0887 59.3061 40.0009 60.8255C35.0033 59.3335 29.5709 56.1883 24.5202 52.3028C21.0452 49.6294 17.7519 46.6066 14.9045 43.5322C14.5645 43.1632 14.2276 42.7914 13.8937 42.4168C13.8003 39.8769 13.7377 37.3386 13.707 34.7986C14.1 35.2472 14.4991 35.6855 14.9045 36.1266C17.7519 39.2008 21.045 42.2236 24.5202 44.8972C29.5709 48.7827 35.0033 51.9278 40.0009 53.4199C45.0887 51.9005 50.6305 48.6667 55.7586 44.6832C57.0582 43.6724 58.3256 42.6209 59.5588 41.53C61.7205 39.6211 63.7566 37.6107 65.593 35.5842C65.8296 35.3243 66.0635 35.062 66.2947 34.7972ZM13.9236 18.5891C18.4416 18.4266 22.9595 18.1041 27.4787 17.6232C30.0339 17.3517 32.037 15.3044 32.2412 12.7425C32.5765 8.54307 32.8269 4.33726 32.9922 0.127686C28.4742 0.290342 14.0889 14.3842 13.9236 18.5891Z" fill="#D0E2E7"/>
</g>
<defs>
<clipPath id="clip0_400_1273">
<rect width="80" height="80" fill="white"/>
</clipPath>
</defs>
</svg>
