<svg width="80" height="80" viewBox="0 0 80 80" fill="none" xmlns="http://www.w3.org/2000/svg">
<g clip-path="url(#clip0_126_5897)">
<path d="M53.4414 24.4668V65.835H58.2704C60.9373 65.835 63.0994 63.6731 63.0994 61.006V24.4668H53.4414Z" fill="#7392C5"/>
<path d="M58.2696 61.006V24.4668H4.82897C2.16209 24.4668 0 26.6287 0 29.2958V61.006C0 63.6731 2.16209 65.835 4.82897 65.835H23.0575L29.3841 78.6542C30.2698 80.4488 32.8288 80.4488 33.7144 78.6542L40.041 65.835H53.4406C56.1075 65.835 58.2696 63.6731 58.2696 61.006Z" fill="#99ADCD"/>
<path d="M53.8426 0H49.0137L53.8426 6.03622V16.9014H58.6716V4.82897C58.6716 2.16193 56.5097 0 53.8426 0Z" fill="#51577D"/>
<path d="M49.0145 0H42.4149C39.7479 0 37.5859 2.16193 37.5859 4.82897V16.9014H42.4149V6.03622C46.068 7.64588 50.1904 7.64588 53.8435 6.03622V4.82897C53.8435 2.16193 51.6816 0 49.0145 0Z" fill="#696E8D"/>
<path d="M70.3418 34.1248V53.4407H75.1708C77.8377 53.4407 79.9997 51.2787 79.9997 48.6117V34.1248H70.3418Z" fill="#373E69"/>
<path d="M70.343 34.1248L16.9023 34.1251V48.6117C16.9023 51.2787 19.0644 53.4407 21.7313 53.4407H70.343C73.0099 53.4407 75.172 51.2787 75.172 48.6117V47.4044L70.343 34.1248Z" fill="#51577D"/>
<path d="M21.7305 34.1248V47.4044C21.7305 47.7246 21.8577 48.0317 22.0841 48.2581C22.3105 48.4845 22.6175 48.6117 22.9377 48.6117H31.3884L48.4508 38.3743L65.5132 48.6117H73.9639C74.284 48.6117 74.5911 48.4845 74.8175 48.2581C75.0439 48.0317 75.1711 47.7246 75.1711 47.4044V34.1248H21.7305Z" fill="#696E8D"/>
<path d="M31.3887 34.1247H65.5134V48.6117H31.3887V34.1247ZM75.1714 12.0724H70.3424L75.1714 38.9537C77.8382 38.9537 80.0003 36.7918 80.0003 34.1247V16.9014C80.0003 14.2344 77.8382 12.0724 75.1714 12.0724Z" fill="#7F839D"/>
<path d="M70.343 12.0724H21.7313C19.0644 12.0724 16.9023 14.2344 16.9023 16.9014V34.1251C16.9025 36.7919 19.0644 38.9537 21.7313 38.9537H75.172V16.9014C75.172 14.2344 73.0099 12.0724 70.343 12.0724Z" fill="#9497AD"/>
<path d="M52.0731 29.2958H47.2441V34.1248H52.0731C53.4066 34.1248 54.4876 33.0437 54.4876 31.7103C54.4876 30.3768 53.4066 29.2958 52.0731 29.2958Z" fill="#C3F7F7"/>
<path d="M49.6575 31.7103C49.6575 30.3768 48.5765 29.2958 47.243 29.2958H44.8285C43.4951 29.2958 42.4141 30.3768 42.4141 31.7103C42.4141 33.0437 43.4951 34.1248 44.8285 34.1248H47.243C48.5765 34.1248 49.6575 33.0437 49.6575 31.7103Z" fill="white"/>
</g>
<defs>
<clipPath id="clip0_126_5897">
<rect width="80" height="80" fill="white"/>
</clipPath>
</defs>
</svg>
