<svg width="20" height="20" viewBox="0 0 20 20" fill="none" xmlns="http://www.w3.org/2000/svg">
<g clip-path="url(#clip0_36_5918)">
<path d="M14.9997 0H6.66634C5.85654 0.00106531 5.06459 0.238088 4.38735 0.682083C3.71011 1.12608 3.17693 1.7578 2.85301 2.5H1.66634C1.44533 2.5 1.23337 2.5878 1.07709 2.74408C0.920805 2.90036 0.833008 3.11232 0.833008 3.33333C0.833008 3.55435 0.920805 3.76631 1.07709 3.92259C1.23337 4.07887 1.44533 4.16667 1.66634 4.16667H2.49967V5.83333H1.66634C1.44533 5.83333 1.23337 5.92113 1.07709 6.07741C0.920805 6.23369 0.833008 6.44565 0.833008 6.66667C0.833008 6.88768 0.920805 7.09964 1.07709 7.25592C1.23337 7.4122 1.44533 7.5 1.66634 7.5H2.49967V9.16667H1.66634C1.44533 9.16667 1.23337 9.25446 1.07709 9.41074C0.920805 9.56702 0.833008 9.77899 0.833008 10C0.833008 10.221 0.920805 10.433 1.07709 10.5893C1.23337 10.7455 1.44533 10.8333 1.66634 10.8333H2.49967V12.5H1.66634C1.44533 12.5 1.23337 12.5878 1.07709 12.7441C0.920805 12.9004 0.833008 13.1123 0.833008 13.3333C0.833008 13.5543 0.920805 13.7663 1.07709 13.9226C1.23337 14.0789 1.44533 14.1667 1.66634 14.1667H2.49967V15.8333H1.66634C1.44533 15.8333 1.23337 15.9211 1.07709 16.0774C0.920805 16.2337 0.833008 16.4457 0.833008 16.6667C0.833008 16.8877 0.920805 17.0996 1.07709 17.2559C1.23337 17.4122 1.44533 17.5 1.66634 17.5H2.85301C3.17693 18.2422 3.71011 18.8739 4.38735 19.3179C5.06459 19.7619 5.85654 19.9989 6.66634 20H14.9997C16.1043 19.9987 17.1634 19.5593 17.9445 18.7782C18.7256 17.997 19.165 16.938 19.1663 15.8333V4.16667C19.165 3.062 18.7256 2.00296 17.9445 1.22185C17.1634 0.440735 16.1043 0.00132321 14.9997 0V0ZM17.4997 15.8333C17.4997 16.4964 17.2363 17.1323 16.7674 17.6011C16.2986 18.0699 15.6627 18.3333 14.9997 18.3333H6.66634C6.0033 18.3333 5.36741 18.0699 4.89857 17.6011C4.42973 17.1323 4.16634 16.4964 4.16634 15.8333V4.16667C4.16634 3.50363 4.42973 2.86774 4.89857 2.3989C5.36741 1.93006 6.0033 1.66667 6.66634 1.66667H14.9997C15.6627 1.66667 16.2986 1.93006 16.7674 2.3989C17.2363 2.86774 17.4997 3.50363 17.4997 4.16667V15.8333ZM10.833 10C11.496 10 12.1319 9.73661 12.6008 9.26777C13.0696 8.79893 13.333 8.16304 13.333 7.5C13.333 6.83696 13.0696 6.20107 12.6008 5.73223C12.1319 5.26339 11.496 5 10.833 5C10.17 5 9.53408 5.26339 9.06524 5.73223C8.5964 6.20107 8.33301 6.83696 8.33301 7.5C8.33301 8.16304 8.5964 8.79893 9.06524 9.26777C9.53408 9.73661 10.17 10 10.833 10ZM14.9997 15C14.9997 15.221 14.9119 15.433 14.7556 15.5893C14.5993 15.7455 14.3874 15.8333 14.1663 15.8333C13.9453 15.8333 13.7334 15.7455 13.5771 15.5893C13.4208 15.433 13.333 15.221 13.333 15C13.333 14.337 13.0696 13.7011 12.6008 13.2322C12.1319 12.7634 11.496 12.5 10.833 12.5C10.17 12.5 9.53408 12.7634 9.06524 13.2322C8.5964 13.7011 8.33301 14.337 8.33301 15C8.33301 15.221 8.24521 15.433 8.08893 15.5893C7.93265 15.7455 7.72069 15.8333 7.49967 15.8333C7.27866 15.8333 7.0667 15.7455 6.91042 15.5893C6.75414 15.433 6.66634 15.221 6.66634 15C6.84217 9.49333 14.8255 9.495 14.9997 15Z" />
</g>
<defs>
<clipPath id="clip0_36_5918">
<rect width="20" height="20" fill="white"/>
</clipPath>
</defs>
</svg>
