<svg width="20" height="20" viewBox="0 0 20 20" fill="none" xmlns="http://www.w3.org/2000/svg">
<path d="M15.5917 13.1583C15.5142 13.2364 15.422 13.2984 15.3205 13.3407C15.2189 13.383 15.11 13.4048 15 13.4048C14.89 13.4048 14.7811 13.383 14.6795 13.3407C14.578 13.2984 14.4858 13.2364 14.4083 13.1583L10.5917 9.34167C10.5142 9.26357 10.422 9.20157 10.3205 9.15927C10.2189 9.11696 10.11 9.09518 10 9.09518C9.89 9.09518 9.78108 9.11696 9.67953 9.15927C9.57798 9.20157 9.48581 9.26357 9.40834 9.34167L5.59168 13.1583C5.51421 13.2364 5.42204 13.2984 5.32049 13.3407C5.21894 13.383 5.11002 13.4048 5.00001 13.4048C4.89 13.4048 4.78108 13.383 4.67953 13.3407C4.57798 13.2984 4.48581 13.2364 4.40834 13.1583C4.25313 13.0022 4.16602 12.791 4.16602 12.5708C4.16602 12.3507 4.25313 12.1395 4.40834 11.9833L8.23334 8.15834C8.70209 7.69018 9.33751 7.42721 10 7.42721C10.6625 7.42721 11.2979 7.69018 11.7667 8.15834L15.5917 11.9833C15.7469 12.1395 15.834 12.3507 15.834 12.5708C15.834 12.791 15.7469 13.0022 15.5917 13.1583Z" fill="white"/>
</svg>
