<svg width="24" height="24" viewBox="0 0 24 24" fill="none" xmlns="http://www.w3.org/2000/svg">
<path d="M8.20986 5.28986C8.11613 5.38283 8.04174 5.49343 7.99097 5.61528C7.9402 5.73714 7.91406 5.86785 7.91406 5.99986C7.91406 6.13187 7.9402 6.26258 7.99097 6.38444C8.04174 6.5063 8.11613 6.6169 8.20986 6.70986L12.7899 11.2899C12.8836 11.3828 12.958 11.4934 13.0087 11.6153C13.0595 11.7371 13.0856 11.8679 13.0856 11.9999C13.0856 12.1319 13.0595 12.2626 13.0087 12.3844C12.958 12.5063 12.8836 12.6169 12.7899 12.7099L8.20986 17.2899C8.11613 17.3828 8.04174 17.4934 7.99097 17.6153C7.9402 17.7371 7.91406 17.8679 7.91406 17.9999C7.91406 18.1319 7.9402 18.2626 7.99097 18.3844C8.04174 18.5063 8.11613 18.6169 8.20986 18.7099C8.39722 18.8961 8.65067 19.0007 8.91486 19.0007C9.17904 19.0007 9.4325 18.8961 9.61986 18.7099L14.2098 14.1199C14.7716 13.5574 15.0872 12.7949 15.0872 11.9999C15.0872 11.2049 14.7716 10.4424 14.2098 9.87986L9.61986 5.28986C9.4325 5.10361 9.17904 4.99907 8.91486 4.99907C8.65067 4.99907 8.39722 5.10361 8.20986 5.28986Z" fill="#294A41"/>
</svg>
