<svg width="20" height="20" viewBox="0 0 20 20" fill="none" xmlns="http://www.w3.org/2000/svg">
<g clip-path="url(#clip0_400_1163)">
<path d="M17.1134 10.5834L16.1717 10.0001L17.1142 9.41672C17.7686 9.02763 18.2754 8.43235 18.555 7.72422C18.7301 7.256 18.7953 6.75385 18.7457 6.25645C18.6962 5.75904 18.533 5.27966 18.269 4.85523C18.0049 4.4308 17.647 4.07265 17.2227 3.80836C16.7984 3.54408 16.3191 3.38073 15.8217 3.33088C15.0628 3.26881 14.3048 3.46051 13.6667 3.87588L13.3325 4.08338V3.47672C13.3466 2.63068 13.0475 1.80929 12.4926 1.17045C11.9378 0.53161 11.1664 0.120405 10.3267 0.0158836C9.86355 -0.0298402 9.39598 0.021921 8.95406 0.167835C8.51215 0.313749 8.10568 0.550583 7.76083 0.863089C7.41599 1.1756 7.1404 1.55685 6.95181 1.98231C6.76322 2.40777 6.66581 2.868 6.66585 3.33338V4.08338L6.33252 3.87505C5.69452 3.4585 4.93613 3.2659 4.17668 3.32755C3.67922 3.37696 3.19974 3.53994 2.77522 3.80393C2.35069 4.06792 1.99245 4.42587 1.72812 4.85019C1.46379 5.2745 1.30043 5.75385 1.25062 6.25127C1.20081 6.7487 1.2659 7.25092 1.44085 7.71922C1.72055 8.42757 2.22767 9.02292 2.88252 9.41172L3.82668 10.0001L2.88418 10.5834C2.22977 10.9725 1.723 11.5678 1.44335 12.2759C1.26805 12.7445 1.20278 13.2471 1.25257 13.7449C1.30237 14.2427 1.46589 14.7224 1.73053 15.1469C1.99516 15.5715 2.35382 15.9296 2.77882 16.1935C3.20382 16.4575 3.6838 16.6202 4.18168 16.6692C4.93888 16.7311 5.69524 16.5403 6.33252 16.1267L6.66585 15.9167V16.6667C6.66585 17.5508 7.01704 18.3986 7.64216 19.0237C8.26728 19.6489 9.11513 20.0001 9.99918 20.0001C10.8832 20.0001 11.7311 19.6489 12.3562 19.0237C12.9813 18.3986 13.3325 17.5508 13.3325 16.6667V15.9167L13.6659 16.1259C14.3027 16.5398 15.0588 16.7311 15.8159 16.67C16.3136 16.6208 16.7934 16.4579 17.2182 16.1939C17.643 15.9298 18.0014 15.5717 18.2659 15.1472C18.5303 14.7226 18.6937 14.243 18.7434 13.7453C18.7931 13.2476 18.7278 12.7452 18.5525 12.2767C18.2733 11.5686 17.7672 10.9731 17.1134 10.5834ZM16.8542 14.2651C16.6303 14.6244 16.2728 14.88 15.8604 14.9758C15.448 15.0716 15.0144 14.9997 14.655 14.7759L12.9392 13.7076C12.8129 13.629 12.6679 13.5857 12.5192 13.5822C12.3706 13.5786 12.2236 13.6149 12.0937 13.6872C11.9638 13.7596 11.8556 13.8654 11.7804 13.9937C11.7051 14.1219 11.6656 14.268 11.6659 14.4167V16.6667C11.6659 17.1087 11.4903 17.5327 11.1777 17.8452C10.8651 18.1578 10.4412 18.3334 9.99918 18.3334C9.55716 18.3334 9.13323 18.1578 8.82067 17.8452C8.50811 17.5327 8.33252 17.1087 8.33252 16.6667V14.4167C8.33248 14.2681 8.29273 14.1223 8.21737 13.9942C8.14201 13.8662 8.0338 13.7606 7.90393 13.6885C7.77406 13.6163 7.62726 13.5802 7.47873 13.5838C7.33021 13.5875 7.18536 13.6308 7.05918 13.7092L5.34335 14.7792C5.16541 14.89 4.96739 14.9647 4.76059 14.999C4.55379 15.0332 4.34227 15.0264 4.13809 14.979C3.93392 14.9315 3.7411 14.8443 3.57063 14.7223C3.40017 14.6003 3.2554 14.4459 3.1446 14.268C3.0338 14.09 2.95913 13.892 2.92486 13.6852C2.89058 13.4784 2.89738 13.2669 2.94485 13.0627C2.99232 12.8585 3.07955 12.6657 3.20154 12.4952C3.32354 12.3248 3.47791 12.18 3.65585 12.0692L5.84335 10.7076C5.96394 10.6328 6.06346 10.5285 6.13247 10.4046C6.20148 10.2806 6.2377 10.1411 6.2377 9.99922C6.2377 9.85734 6.20148 9.71782 6.13247 9.59386C6.06346 9.46991 5.96394 9.36562 5.84335 9.29088L3.65585 7.93005C3.29648 7.70627 3.04073 7.3489 2.94485 6.93656C2.84897 6.52421 2.92082 6.09067 3.1446 5.7313C3.36838 5.37193 3.72575 5.11618 4.13809 5.0203C4.55044 4.92442 4.98398 4.99627 5.34335 5.22005L7.05918 6.28838C7.18518 6.36672 7.3298 6.41 7.47811 6.41375C7.62642 6.4175 7.77304 6.38159 7.90284 6.30973C8.03263 6.23787 8.14089 6.13266 8.21642 6.00497C8.29196 5.87728 8.33204 5.73174 8.33252 5.58338V3.42255C8.32352 3.01684 8.4575 2.62089 8.71101 2.30401C8.96451 1.98713 9.3214 1.7695 9.71918 1.68922C9.9584 1.64845 10.2036 1.66041 10.4378 1.72427C10.6719 1.78812 10.8892 1.90233 11.0746 2.05891C11.26 2.2155 11.409 2.41067 11.5111 2.63081C11.6132 2.85094 11.666 3.09072 11.6659 3.33338V5.58338C11.666 5.73188 11.7059 5.87764 11.7813 6.00556C11.8567 6.13348 11.965 6.23893 12.0948 6.31099C12.2246 6.38305 12.3714 6.41911 12.5198 6.41542C12.6683 6.41174 12.8131 6.36846 12.9392 6.29005L14.655 5.22255C14.833 5.11175 15.031 5.03708 15.2378 5.0028C15.4446 4.96853 15.6561 4.97533 15.8603 5.0228C16.0644 5.07027 16.2573 5.1575 16.4277 5.27949C16.5982 5.40148 16.743 5.55586 16.8538 5.7338C16.9646 5.91174 17.0392 6.10977 17.0735 6.31656C17.1078 6.52336 17.101 6.73489 17.0535 6.93906C17.006 7.14323 16.9188 7.33605 16.7968 7.50652C16.6748 7.67698 16.5205 7.82175 16.3425 7.93255L14.155 9.29422C14.0344 9.36895 13.9349 9.47324 13.8659 9.5972C13.7969 9.72115 13.7607 9.86068 13.7607 10.0026C13.7607 10.1444 13.7969 10.2839 13.8659 10.4079C13.9349 10.5319 14.0344 10.6361 14.155 10.7109L16.3425 12.0726C16.5206 12.1832 16.675 12.3279 16.7971 12.4983C16.9192 12.6687 17.0065 12.8615 17.054 13.0657C17.1016 13.2698 17.1084 13.4814 17.0741 13.6882C17.0398 13.895 16.9651 14.093 16.8542 14.2709V14.2651Z" fill="#ffffff"/>
</g>
<defs>
<clipPath id="clip0_400_1163">
<rect width="20" height="20" fill="white"/>
</clipPath>
</defs>
</svg>
