<svg width="20" height="20" viewBox="0 0 20 20" fill="none" xmlns="http://www.w3.org/2000/svg">
<g clip-path="url(#clip0_36_5930)">
<path d="M17.3788 12.776L14.2355 17.9052C13.8903 18.4718 13.4204 18.9523 12.8615 19.31C12.3027 19.6677 11.6696 19.8932 11.0105 19.9693C10.8368 19.9899 10.662 20.0002 10.4871 20.0002C9.59167 19.9989 8.71849 19.721 7.98712 19.2043C7.23133 19.7706 6.29773 20.0473 5.35546 19.9845C4.41319 19.9217 3.52459 19.5234 2.85066 18.8619C2.17673 18.2004 1.76205 17.3193 1.68175 16.3784C1.60145 15.4374 1.86086 14.4988 2.41295 13.7327L1.31712 12.6385C0.849199 12.1706 0.493215 11.6028 0.275829 10.9778C0.0584418 10.3527 -0.0147143 9.68662 0.061839 9.0293C0.138392 8.37198 0.362671 7.74051 0.717879 7.18216C1.07309 6.62381 1.55002 6.15306 2.11295 5.80517L6.91879 2.8335C8.22063 1.99915 9.75159 1.59463 11.2957 1.67701C12.8397 1.7594 14.319 2.32453 15.5246 3.29267L16.9071 1.91017C16.984 1.83058 17.0759 1.76709 17.1776 1.72342C17.2793 1.67974 17.3886 1.65676 17.4993 1.65579C17.6099 1.65483 17.7197 1.67592 17.8221 1.71782C17.9245 1.75972 18.0175 1.8216 18.0958 1.89984C18.174 1.97808 18.2359 2.07113 18.2778 2.17354C18.3197 2.27596 18.3408 2.38569 18.3398 2.49634C18.3389 2.60699 18.3159 2.71634 18.2722 2.81801C18.2285 2.91968 18.165 3.01163 18.0855 3.0885L16.7046 4.47017C17.6307 5.63037 18.1896 7.04052 18.3097 8.52017C18.4298 9.99981 18.1057 11.4816 17.3788 12.776ZM6.71712 18.0393L3.61795 14.9393C3.37577 15.3725 3.28236 15.8731 3.35205 16.3644C3.42175 16.8557 3.6507 17.3106 4.00379 17.6593C4.35997 17.9977 4.81301 18.2162 5.29953 18.2843C5.78605 18.3525 6.28169 18.2668 6.71712 18.0393ZM14.9846 5.03934C14.0592 4.10504 12.8411 3.51686 11.5339 3.3732C10.2268 3.22955 8.90998 3.53914 7.80379 4.25017L2.98962 7.22184C2.64049 7.43764 2.3447 7.72964 2.12442 8.07596C1.90413 8.42229 1.76505 8.81396 1.7176 9.22165C1.67014 9.62935 1.71554 10.0425 1.85039 10.4302C1.98524 10.8178 2.20605 11.1699 2.49629 11.4602L8.57129 17.536C8.86198 17.827 9.21488 18.0484 9.60344 18.1833C9.99201 18.3183 10.4061 18.3634 10.8146 18.3153C11.2231 18.2672 11.6154 18.1271 11.962 17.9055C12.3085 17.6839 12.6003 17.3866 12.8155 17.036L15.9446 11.9318C16.5558 10.8341 16.7927 9.56715 16.6195 8.32275C16.4463 7.07835 15.8724 5.92425 14.9846 5.03517V5.03934ZM16.0505 20.0002C15.8745 20.0005 15.7029 19.9451 15.5603 19.8419C15.4178 19.7387 15.3115 19.593 15.2568 19.4258C15.2022 19.2585 15.2018 19.0782 15.2559 18.9107C15.31 18.7432 15.4158 18.5972 15.558 18.4935C17.0171 17.3965 18.0047 15.7857 18.3205 13.9877C18.3426 13.8794 18.386 13.7767 18.4483 13.6854C18.5105 13.5941 18.5902 13.5161 18.6829 13.4559C18.7755 13.3957 18.8792 13.3545 18.9879 13.3348C19.0966 13.315 19.2082 13.3171 19.3161 13.3408C19.424 13.3646 19.5261 13.4096 19.6164 13.4732C19.7068 13.5367 19.7836 13.6176 19.8424 13.7112C19.9012 13.8047 19.9408 13.909 19.9589 14.018C19.977 14.127 19.9733 14.2385 19.948 14.346C19.5396 16.539 18.3241 18.4994 16.5413 19.8402C16.3987 19.9441 16.2269 20.0001 16.0505 20.0002ZM0.829619 4.78267C0.675705 4.78198 0.524987 4.73868 0.394178 4.65757C0.263369 4.57646 0.15758 4.46071 0.0885393 4.32314C0.0194989 4.18558 -0.0100945 4.03158 0.00304026 3.87823C0.016175 3.72488 0.0715247 3.57816 0.162952 3.45434C1.5221 1.63816 3.5228 0.408772 5.75712 0.0168366C5.97371 -0.0273661 6.19899 0.016283 6.38341 0.138182C6.56782 0.26008 6.69625 0.450243 6.74045 0.666837C6.78466 0.88343 6.74101 1.10871 6.61911 1.29312C6.49721 1.47753 6.30705 1.60597 6.09045 1.65017C4.25543 1.95319 2.60898 2.95486 1.49629 4.44517C1.4191 4.54943 1.31864 4.63424 1.2029 4.69283C1.08716 4.75142 0.959343 4.78219 0.829619 4.78267Z" />
</g>
<defs>
<clipPath id="clip0_36_5930">
<rect width="20" height="20" fill="white"/>
</clipPath>
</defs>
</svg>
