<svg width="20" height="20" viewBox="0 0 20 20" fill="none" xmlns="http://www.w3.org/2000/svg">
<path d="M17.4998 10.3531V9.16641C17.4998 7.17729 16.7096 5.26963 15.3031 3.86311C13.8965 2.45659 11.9889 1.66641 9.99976 1.66641C8.01063 1.66641 6.10298 2.45659 4.69645 3.86311C3.28993 5.26963 2.49976 7.17729 2.49976 9.16641V10.3531C1.62572 10.7379 0.910423 11.4114 0.473607 12.2606C0.0367909 13.1099 -0.0950272 14.0834 0.10022 15.0183C0.295467 15.9531 0.805928 16.7925 1.54615 17.396C2.28637 17.9994 3.21141 18.3302 4.16642 18.3331C4.60845 18.3331 5.03237 18.1575 5.34493 17.8449C5.65749 17.5324 5.83309 17.1084 5.83309 16.6664V11.6664C5.83309 11.2244 5.65749 10.8005 5.34493 10.4879C5.03237 10.1753 4.60845 9.99975 4.16642 9.99975V9.16641C4.16642 7.61932 4.781 6.13558 5.87497 5.04162C6.96893 3.94766 8.45266 3.33308 9.99976 3.33308C11.5469 3.33308 13.0306 3.94766 14.1245 5.04162C15.2185 6.13558 15.8331 7.61932 15.8331 9.16641V9.99975C15.3911 9.99975 14.9671 10.1753 14.6546 10.4879C14.342 10.8005 14.1664 11.2244 14.1664 11.6664V16.6664H11.6664C11.4454 16.6664 11.2334 16.7542 11.0772 16.9105C10.9209 17.0668 10.8331 17.2787 10.8331 17.4997C10.8331 17.7208 10.9209 17.9327 11.0772 18.089C11.2334 18.2453 11.4454 18.3331 11.6664 18.3331H15.8331C16.7881 18.3302 17.7131 17.9994 18.4534 17.396C19.1936 16.7925 19.704 15.9531 19.8993 15.0183C20.0945 14.0834 19.9627 13.1099 19.5259 12.2606C19.0891 11.4114 18.3738 10.7379 17.4998 10.3531ZM4.16642 16.6664C3.50338 16.6664 2.8675 16.403 2.39866 15.9342C1.92981 15.4653 1.66642 14.8295 1.66642 14.1664C1.66642 13.5034 1.92981 12.8675 2.39866 12.3986C2.8675 11.9298 3.50338 11.6664 4.16642 11.6664V16.6664ZM15.8331 16.6664V11.6664C16.4961 11.6664 17.132 11.9298 17.6009 12.3986C18.0697 12.8675 18.3331 13.5034 18.3331 14.1664C18.3331 14.8295 18.0697 15.4653 17.6009 15.9342C17.132 16.403 16.4961 16.6664 15.8331 16.6664Z" fill="#88A49C"/>
</svg>
