<svg width="20" height="20" viewBox="0 0 20 20" fill="none" xmlns="http://www.w3.org/2000/svg">
<path d="M6.89936 2.08391C7.42436 2.09988 7.9327 2.19154 8.4252 2.35904H8.47436C8.5077 2.37488 8.5327 2.39238 8.54936 2.40821C8.73353 2.46738 8.9077 2.53404 9.07436 2.62571L9.39103 2.76738C9.51603 2.83404 9.66603 2.95821 9.74936 3.00904C9.8327 3.05821 9.92436 3.10904 9.99936 3.16654C10.9252 2.45904 12.0494 2.07571 13.2077 2.08391C13.7335 2.08391 14.2585 2.15821 14.7577 2.32571C17.8335 3.32571 18.9419 6.70071 18.016 9.65071C17.491 11.1582 16.6327 12.534 15.5085 13.6582C13.8994 15.2165 12.1335 16.5999 10.2327 17.7915L10.0244 17.9174L9.8077 17.7832C7.9002 16.5999 6.12436 15.2165 4.5002 13.6499C3.38353 12.5257 2.52436 11.1582 1.99103 9.65071C1.04936 6.70071 2.1577 3.32571 5.26686 2.30821C5.50853 2.22488 5.7577 2.16654 6.0077 2.13404H6.1077C6.34186 2.09988 6.57436 2.08391 6.8077 2.08391H6.89936ZM14.3244 4.71738C13.9827 4.59988 13.6077 4.78404 13.4827 5.13404C13.366 5.48404 13.5494 5.86738 13.8994 5.99154C14.4335 6.19154 14.791 6.71738 14.791 7.29988V7.32571C14.7752 7.51654 14.8327 7.70071 14.9494 7.84238C15.066 7.98404 15.241 8.06654 15.4244 8.08404C15.766 8.07488 16.0577 7.80071 16.0827 7.44988V7.35071C16.1077 6.18321 15.4002 5.12571 14.3244 4.71738Z" fill="#05AF7F"/>
</svg>
