<svg width="20" height="20" viewBox="0 0 20 20" fill="none" xmlns="http://www.w3.org/2000/svg">
<g clip-path="url(#clip0_400_1189)">
<path d="M19.1667 18.3333H4.16667C3.50363 18.3333 2.86774 18.0699 2.3989 17.6011C1.93006 17.1323 1.66667 16.4964 1.66667 15.8333V0.833333C1.66667 0.61232 1.57887 0.400358 1.42259 0.244078C1.26631 0.0877974 1.05435 0 0.833333 0C0.61232 0 0.400358 0.0877974 0.244078 0.244078C0.0877974 0.400358 0 0.61232 0 0.833333L0 15.8333C0.00132321 16.938 0.440735 17.997 1.22185 18.7782C2.00296 19.5593 3.062 19.9987 4.16667 20H19.1667C19.3877 20 19.5996 19.9122 19.7559 19.7559C19.9122 19.5996 20 19.3877 20 19.1667C20 18.9457 19.9122 18.7337 19.7559 18.5774C19.5996 18.4211 19.3877 18.3333 19.1667 18.3333Z" fill="#ffffff"/>
<path d="M5.0013 16.6665C5.22231 16.6665 5.43427 16.5787 5.59055 16.4224C5.74683 16.2661 5.83463 16.0542 5.83463 15.8332V9.99984C5.83463 9.77882 5.74683 9.56686 5.59055 9.41058C5.43427 9.2543 5.22231 9.1665 5.0013 9.1665C4.78029 9.1665 4.56833 9.2543 4.41205 9.41058C4.25577 9.56686 4.16797 9.77882 4.16797 9.99984V15.8332C4.16797 16.0542 4.25577 16.2661 4.41205 16.4224C4.56833 16.5787 4.78029 16.6665 5.0013 16.6665Z" fill="#ffffff"/>
<path d="M8.33203 8.33333V15.8333C8.33203 16.0543 8.41983 16.2663 8.57611 16.4226C8.73239 16.5789 8.94435 16.6667 9.16537 16.6667C9.38638 16.6667 9.59835 16.5789 9.75463 16.4226C9.91091 16.2663 9.99871 16.0543 9.99871 15.8333V8.33333C9.99871 8.11232 9.91091 7.90036 9.75463 7.74408C9.59835 7.5878 9.38638 7.5 9.16537 7.5C8.94435 7.5 8.73239 7.5878 8.57611 7.74408C8.41983 7.90036 8.33203 8.11232 8.33203 8.33333Z" fill="#ffffff"/>
<path d="M12.5 10.8333V15.8333C12.5 16.0543 12.5878 16.2663 12.7441 16.4226C12.9004 16.5789 13.1123 16.6667 13.3333 16.6667C13.5544 16.6667 13.7663 16.5789 13.9226 16.4226C14.0789 16.2663 14.1667 16.0543 14.1667 15.8333V10.8333C14.1667 10.6123 14.0789 10.4004 13.9226 10.2441C13.7663 10.0878 13.5544 10 13.3333 10C13.1123 10 12.9004 10.0878 12.7441 10.2441C12.5878 10.4004 12.5 10.6123 12.5 10.8333Z" fill="#ffffff"/>
<path d="M16.668 7.49984V15.8332C16.668 16.0542 16.7558 16.2661 16.912 16.4224C17.0683 16.5787 17.2803 16.6665 17.5013 16.6665C17.7223 16.6665 17.9343 16.5787 18.0906 16.4224C18.2468 16.2661 18.3346 16.0542 18.3346 15.8332V7.49984C18.3346 7.27882 18.2468 7.06686 18.0906 6.91058C17.9343 6.7543 17.7223 6.6665 17.5013 6.6665C17.2803 6.6665 17.0683 6.7543 16.912 6.91058C16.7558 7.06686 16.668 7.27882 16.668 7.49984Z" fill="#ffffff"/>
<path d="M5.00112 7.50001C5.22212 7.49997 5.43405 7.41214 5.59029 7.25585L8.57862 4.26751C8.73746 4.1162 8.94842 4.0318 9.16779 4.0318C9.38716 4.0318 9.59812 4.1162 9.75696 4.26751L11.567 6.07751C12.0358 6.54619 12.6715 6.80948 13.3345 6.80948C13.9974 6.80948 14.6331 6.54619 15.102 6.07751L19.757 1.42251C19.9088 1.26535 19.9928 1.05484 19.9909 0.836346C19.989 0.617849 19.9013 0.408838 19.7468 0.254332C19.5923 0.0998249 19.3833 0.0121841 19.1648 0.0102854C18.9463 0.00838673 18.7358 0.0923821 18.5786 0.24418L13.9236 4.89835C13.7674 5.05457 13.5554 5.14234 13.3345 5.14234C13.1135 5.14234 12.9016 5.05457 12.7453 4.89835L10.9353 3.08918C10.4665 2.6205 9.8307 2.35721 9.16779 2.35721C8.50488 2.35721 7.86911 2.6205 7.40029 3.08918L4.41196 6.07751C4.29545 6.19406 4.21611 6.34253 4.18397 6.50415C4.15183 6.66578 4.16833 6.83331 4.23139 6.98556C4.29445 7.13781 4.40123 7.26794 4.53824 7.35952C4.67525 7.45109 4.83633 7.49998 5.00112 7.50001Z" fill="#ffffff"/>
</g>
<defs>
<clipPath id="clip0_400_1189">
<rect width="20" height="20" fill="white"/>
</clipPath>
</defs>
</svg>
