<svg width="20" height="20" viewBox="0 0 20 20" fill="none" xmlns="http://www.w3.org/2000/svg">
<path fill-rule="evenodd" clip-rule="evenodd" d="M14 9.99376C14 12.2017 12.2093 13.9912 10 13.9912C7.79067 13.9912 6 12.2017 6 9.99376C6 7.78587 7.79067 5.99637 10 5.99637C12.2093 5.99637 14 7.78587 14 9.99376Z" fill="#294A41"/>
<path d="M10.0003 1.99903V0.666595M10.0003 19.3211V17.9886M18.0003 9.99382H19.3337M2.00033 9.99382H0.666992M3.33366 3.33147L2.00033 1.99903M18.0003 1.99903L16.667 3.33147M3.33366 16.6561L2.00033 17.9886M18.0003 17.9886L16.667 16.6561M14.0003 9.99382C14.0003 12.2017 12.2097 13.9912 10.0003 13.9912C7.79099 13.9912 6.00033 12.2017 6.00033 9.99382C6.00033 7.78593 7.79099 5.99643 10.0003 5.99643C12.2097 5.99643 14.0003 7.78593 14.0003 9.99382Z" stroke="#294A41" stroke-linecap="round" stroke-linejoin="round"/>
</svg>
