<svg width="36" height="36" viewBox="0 0 36 36" fill="none" xmlns="http://www.w3.org/2000/svg">
<g clip-path="url(#clip0_166_3336)">
<path d="M25.3079 26.4972C24.1706 27.6352 12.1093 33.0986 3.02269 35.3361C2.61538 35.4373 2.18882 35.4314 1.78445 35.3191C1.38007 35.2068 1.01161 34.9918 0.714845 34.695C0.41808 34.3983 0.203093 34.0298 0.0907593 33.6254C-0.0215743 33.221 -0.0274373 32.7945 0.0737396 32.3872C2.31123 23.3005 7.7753 11.2399 8.91266 10.102L25.3079 26.4972Z" fill="#F0C419"/>
<path d="M25.3035 26.4969C26.495 25.3055 23.7906 20.6695 19.2632 16.142C14.7357 11.6146 10.0997 8.91022 8.90825 10.1017C7.71682 11.2931 10.4212 15.9291 14.9486 20.4566C19.4761 24.984 24.1121 27.6884 25.3035 26.4969Z" fill="#D25627"/>
<path d="M6.32385 30.3065C6.99783 30.3065 7.54419 29.7601 7.54419 29.0862C7.54419 28.4122 6.99783 27.8658 6.32385 27.8658C5.64988 27.8658 5.10352 28.4122 5.10352 29.0862C5.10352 29.7601 5.64988 30.3065 6.32385 30.3065Z" fill="#955BA5"/>
<path d="M14.0897 15.89C13.9689 15.8901 13.8508 15.8544 13.7504 15.7873C13.6499 15.7202 13.5717 15.6248 13.5255 15.5132C13.4793 15.4016 13.4672 15.2788 13.4909 15.1604C13.5145 15.0419 13.5728 14.9332 13.6583 14.8479L17.5415 10.9654C19.6301 8.87614 19.8961 7.27932 18.4048 5.78746C18.0968 5.42687 17.7029 5.14966 17.2595 4.98139C16.8161 4.81312 16.3375 4.7592 15.8678 4.82461C15.1945 4.96715 14.577 5.30156 14.0897 5.78746C13.9746 5.89861 13.8205 5.96011 13.6605 5.95872C13.5005 5.95733 13.3475 5.89316 13.2344 5.78003C13.1212 5.6669 13.0571 5.51386 13.0557 5.35387C13.0543 5.19389 13.1158 5.03976 13.2269 4.92468C13.8902 4.26022 14.7355 3.80712 15.656 3.62258C16.319 3.51793 16.9976 3.58241 17.629 3.81004C18.2603 4.03767 18.824 4.42107 19.2676 4.92468C21.2714 6.92848 20.981 9.25139 18.4042 11.8281L14.5223 15.7113C14.4655 15.7681 14.3981 15.8131 14.3239 15.8438C14.2496 15.8745 14.1701 15.8902 14.0897 15.89Z" fill="#955BA5"/>
<path d="M30.0535 22.3615C29.9328 22.3615 29.8148 22.3257 29.7145 22.2586C29.6142 22.1916 29.536 22.0963 29.4899 21.9848C29.4437 21.8733 29.4316 21.7507 29.4551 21.6323C29.4787 21.514 29.5368 21.4053 29.6221 21.3199C29.9288 21.0505 30.1746 20.7186 30.3429 20.3466C30.5113 19.9746 30.5984 19.571 30.5984 19.1627C30.5984 18.7544 30.5113 18.3507 30.3429 17.9787C30.1746 17.6067 29.9288 17.2749 29.6221 17.0054C29.3143 16.6322 28.9077 16.3531 28.4488 16.2C27.9899 16.0469 27.4972 16.026 27.027 16.1396C26.0314 16.4831 25.1418 17.0787 24.4448 17.8682L20.993 21.3199C20.878 21.4311 20.7238 21.4926 20.5639 21.4912C20.4039 21.4898 20.2508 21.4256 20.1377 21.3125C20.0246 21.1994 19.9604 21.0463 19.959 20.8864C19.9576 20.7264 20.0191 20.5722 20.1303 20.4572L23.582 17.0054C24.429 16.0601 25.5101 15.3544 26.7164 14.9595C27.3924 14.7864 28.1033 14.8054 28.7691 15.0145C29.4349 15.2235 30.0291 15.6142 30.4848 16.1427C32.8688 18.526 31.6069 21.0612 30.4848 22.1833C30.4283 22.2401 30.3611 22.2851 30.287 22.3157C30.213 22.3463 30.1336 22.3619 30.0535 22.3615Z" fill="#FF5364"/>
<path d="M22.2878 11.1435C22.1673 11.1435 22.0495 11.1078 21.9492 11.0409C21.849 10.974 21.7708 10.8789 21.7245 10.7676C21.6782 10.6564 21.6659 10.5339 21.6892 10.4156C21.7125 10.2974 21.7702 10.1887 21.8552 10.1032C22.015 9.94211 25.7371 6.11452 22.674 2.2857C22.6191 2.22376 22.5773 2.15129 22.5513 2.07269C22.5253 1.9941 22.5155 1.91103 22.5226 1.82854C22.5297 1.74605 22.5535 1.66587 22.5926 1.59287C22.6316 1.51988 22.6852 1.4556 22.7499 1.40395C22.8146 1.3523 22.8891 1.31436 22.9689 1.29244C23.0488 1.27052 23.1323 1.26507 23.2143 1.27644C23.2963 1.2878 23.3751 1.31574 23.446 1.35854C23.5169 1.40135 23.5783 1.45813 23.6265 1.52543C27.3766 6.21214 22.7662 10.922 22.7186 10.9672C22.6619 11.0236 22.5947 11.0682 22.5208 11.0984C22.4469 11.1287 22.3677 11.144 22.2878 11.1435Z" fill="#F0C419"/>
<path d="M28.6782 12.7959C29.6891 12.7959 30.5087 11.9763 30.5087 10.9654C30.5087 9.95439 29.6891 9.13484 28.6782 9.13484C27.6672 9.13484 26.8477 9.95439 26.8477 10.9654C26.8477 11.9763 27.6672 12.7959 28.6782 12.7959Z" fill="#FF5364"/>
<path d="M19.526 2.44068C20.2 2.44068 20.7463 1.89431 20.7463 1.22034C20.7463 0.546364 20.2 0 19.526 0C18.852 0 18.3057 0.546364 18.3057 1.22034C18.3057 1.89431 18.852 2.44068 19.526 2.44068Z" fill="#3B97D3"/>
<path d="M34.1696 24.4068C34.8435 24.4068 35.3899 23.8604 35.3899 23.1864C35.3899 22.5125 34.8435 21.9661 34.1696 21.9661C33.4956 21.9661 32.9492 22.5125 32.9492 23.1864C32.9492 23.8604 33.4956 24.4068 34.1696 24.4068Z" fill="#955BA5"/>
<path d="M28.679 3.66101C28.5171 3.66101 28.3619 3.59673 28.2475 3.4823C28.1331 3.36787 28.0688 3.21267 28.0688 3.05084V2.44067C28.0688 2.27885 28.1331 2.12365 28.2475 2.00922C28.3619 1.89479 28.5171 1.83051 28.679 1.83051C28.8408 1.83051 28.996 1.89479 29.1104 2.00922C29.2248 2.12365 29.2891 2.27885 29.2891 2.44067V3.05084C29.2891 3.21267 29.2248 3.36787 29.1104 3.4823C28.996 3.59673 28.8408 3.66101 28.679 3.66101ZM30.5095 4.88135H29.8993C29.7375 4.88135 29.5823 4.81707 29.4678 4.70264C29.3534 4.58821 29.2891 4.43301 29.2891 4.27118C29.2891 4.10936 29.3534 3.95416 29.4678 3.83973C29.5823 3.7253 29.7375 3.66101 29.8993 3.66101H30.5095C30.6713 3.66101 30.8265 3.7253 30.9409 3.83973C31.0554 3.95416 31.1196 4.10936 31.1196 4.27118C31.1196 4.43301 31.0554 4.58821 30.9409 4.70264C30.8265 4.81707 30.6713 4.88135 30.5095 4.88135ZM28.679 6.71186C28.5171 6.71186 28.3619 6.64758 28.2475 6.53315C28.1331 6.41872 28.0688 6.26352 28.0688 6.10169V5.49152C28.0688 5.3297 28.1331 5.1745 28.2475 5.06007C28.3619 4.94564 28.5171 4.88135 28.679 4.88135C28.8408 4.88135 28.996 4.94564 29.1104 5.06007C29.2248 5.1745 29.2891 5.3297 29.2891 5.49152V6.10169C29.2891 6.26352 29.2248 6.41872 29.1104 6.53315C28.996 6.64758 28.8408 6.71186 28.679 6.71186ZM27.4586 4.88135H26.8485C26.6866 4.88135 26.5314 4.81707 26.417 4.70264C26.3026 4.58821 26.2383 4.43301 26.2383 4.27118C26.2383 4.10936 26.3026 3.95416 26.417 3.83973C26.5314 3.7253 26.6866 3.66101 26.8485 3.66101H27.4586C27.6204 3.66101 27.7756 3.7253 27.8901 3.83973C28.0045 3.95416 28.0688 4.10936 28.0688 4.27118C28.0688 4.43301 28.0045 4.58821 27.8901 4.70264C27.7756 4.81707 27.6204 4.88135 27.4586 4.88135Z" fill="#955BA5"/>
<path d="M33.5598 14.0339C33.398 14.0339 33.2428 13.9696 33.1284 13.8552C33.0139 13.7407 32.9496 13.5856 32.9496 13.4237V12.8136C32.9496 12.6517 33.0139 12.4965 33.1284 12.3821C33.2428 12.2677 33.398 12.2034 33.5598 12.2034C33.7216 12.2034 33.8768 12.2677 33.9913 12.3821C34.1057 12.4965 34.17 12.6517 34.17 12.8136V13.4237C34.17 13.5856 34.1057 13.7407 33.9913 13.8552C33.8768 13.9696 33.7216 14.0339 33.5598 14.0339ZM35.3903 15.2542H34.7802C34.6183 15.2542 34.4631 15.1899 34.3487 15.0755C34.2343 14.9611 34.17 14.8059 34.17 14.6441C34.17 14.4822 34.2343 14.327 34.3487 14.2126C34.4631 14.0982 34.6183 14.0339 34.7802 14.0339H35.3903C35.5522 14.0339 35.7074 14.0982 35.8218 14.2126C35.9362 14.327 36.0005 14.4822 36.0005 14.6441C36.0005 14.8059 35.9362 14.9611 35.8218 15.0755C35.7074 15.1899 35.5522 15.2542 35.3903 15.2542ZM33.5598 17.0847C33.398 17.0847 33.2428 17.0205 33.1284 16.906C33.0139 16.7916 32.9496 16.6364 32.9496 16.4746V15.8644C32.9496 15.7026 33.0139 15.5474 33.1284 15.4329C33.2428 15.3185 33.398 15.2542 33.5598 15.2542C33.7216 15.2542 33.8768 15.3185 33.9913 15.4329C34.1057 15.5474 34.17 15.7026 34.17 15.8644V16.4746C34.17 16.6364 34.1057 16.7916 33.9913 16.906C33.8768 17.0205 33.7216 17.0847 33.5598 17.0847ZM32.3395 15.2542H31.7293C31.5675 15.2542 31.4123 15.1899 31.2979 15.0755C31.1834 14.9611 31.1191 14.8059 31.1191 14.6441C31.1191 14.4822 31.1834 14.327 31.2979 14.2126C31.4123 14.0982 31.5675 14.0339 31.7293 14.0339H32.3395C32.5013 14.0339 32.6565 14.0982 32.7709 14.2126C32.8854 14.327 32.9496 14.4822 32.9496 14.6441C32.9496 14.8059 32.8854 14.9611 32.7709 15.0755C32.6565 15.1899 32.5013 15.2542 32.3395 15.2542Z" fill="#3B97D3"/>
<path fill-rule="evenodd" clip-rule="evenodd" d="M20.4532 29.0685C18.8728 29.7885 17.0057 30.5817 15.0044 31.3749C14.7054 31.1919 14.3881 30.9844 14.0586 30.7586C14.2044 29.0197 14.6444 27.3173 15.3583 25.7247C16.941 27.0062 18.6477 28.1264 20.4532 29.0685Z" fill="black"/>
<path d="M20.4529 29.0685C18.8725 29.7885 17.0054 30.5817 15.004 31.3749C14.7051 31.1919 14.3878 30.9844 14.0583 30.7586C12.8424 29.9396 11.6806 29.0428 10.5803 28.0739C10.0373 27.5858 9.47591 27.0671 8.90846 26.4997C8.28923 25.885 7.69486 25.2459 7.12676 24.5837C5.98776 23.2758 4.95339 21.8803 4.0332 20.4102C4.82642 18.4088 5.61964 16.5417 6.34574 14.9613C6.99234 16.2174 7.73274 17.4228 8.56066 18.5675C9.5501 19.9507 10.6391 21.2599 11.819 22.4847C11.9898 22.6739 12.1729 22.8569 12.362 23.0461C13.3092 23.995 14.3094 24.8893 15.3579 25.7247C16.9407 27.0062 18.6474 28.1264 20.4529 29.0685Z" fill="#FF5364"/>
<path d="M15.3587 25.7247C14.6443 27.3173 14.2049 29.0193 14.059 30.7586C12.8431 29.9396 11.6814 29.0428 10.5811 28.0739C10.6238 26.1476 11.0448 24.2481 11.8197 22.4847C11.9905 22.6739 12.1736 22.8569 12.3627 23.0461C13.3099 23.995 14.3101 24.8893 15.3587 25.7247Z" fill="#955BA5"/>
<path d="M11.8192 22.4847C11.044 24.2486 10.6231 26.1477 10.5805 28.0739C10.0375 27.5858 9.47611 27.0671 8.90865 26.4997C8.28942 25.885 7.69505 25.2459 7.12695 24.5837C7.19016 22.5016 7.6781 20.4543 8.56085 18.5675C9.5503 19.9507 10.6393 21.2599 11.8192 22.4847Z" fill="#B49ACA"/>
<path d="M6.68195 34.3159C5.4311 34.7003 4.19856 35.042 3.02093 35.3349C2.61386 35.4361 2.18753 35.4303 1.78336 35.3181C1.37919 35.2059 1.01092 34.991 0.714309 34.6944C0.417703 34.3978 0.202851 34.0295 0.0906214 33.6254C-0.0216076 33.2212 -0.0273977 32.7949 0.0738137 32.3878C0.366695 31.2102 0.70839 29.9776 1.0928 28.7268C2.74691 30.7877 4.62106 32.6618 6.68195 34.3159Z" fill="#FF5364"/>
</g>
<defs>
<clipPath id="clip0_166_3336">
<rect width="36" height="36" fill="white"/>
</clipPath>
</defs>
</svg>
