<svg width="80" height="80" viewBox="0 0 80 80" fill="none" xmlns="http://www.w3.org/2000/svg">
<g clip-path="url(#clip0_309_4466)">
<path d="M75.2546 67.2464C75.1256 68.876 74.9775 70.5039 74.8103 72.13C74.7653 72.5742 74.7186 73.0186 74.6703 73.4628C74.3564 76.3553 72.0386 78.6233 69.1396 78.8519C49.7445 80.3827 30.2589 80.3827 10.8638 78.8519C7.96487 78.6233 5.6469 76.3553 5.33299 73.4628C5.28471 73.0186 5.23799 72.5759 5.19299 72.1316C5.02578 70.5055 4.8777 68.8775 4.74877 67.248V67.2464C3.65737 53.595 3.85377 39.9467 5.33315 26.2953C5.64705 23.4028 7.96487 21.1348 10.8639 20.9062C30.259 19.3755 49.7446 19.3755 69.1397 20.9062C72.0386 21.1348 74.3566 23.4028 74.6705 26.2953C76.1496 39.9467 76.3458 53.5966 75.2546 67.2464Z" fill="#F9DA41"/>
<path d="M12.1288 78.9473C11.706 78.9169 11.2849 78.885 10.8637 78.8516C7.96383 78.6234 5.64633 76.3547 5.3332 73.4625C3.62852 57.7406 3.62852 42.0172 5.3332 26.2953C5.64648 23.4031 7.96383 21.1358 10.8637 20.9063C11.2849 20.8728 11.7062 20.8408 12.1288 20.8105C11.3821 21.3262 10.7555 21.9969 10.2915 22.7768C9.82756 23.5567 9.53726 24.4275 9.44039 25.3298C7.66586 41.6964 7.66586 58.0616 9.44039 74.4281C9.53724 75.3304 9.82754 76.2012 10.2915 76.9811C10.7554 77.761 11.3821 78.4316 12.1288 78.9473ZM75.2535 67.2464C75.1246 68.876 74.9765 70.5039 74.8093 72.13C73.6616 68.1686 69.0387 61.8041 62.2734 55.0306C61.8034 54.5591 61.8034 53.7944 62.2749 53.3244C62.3871 53.2122 62.5202 53.1232 62.6668 53.0626C62.8134 53.0019 62.9705 52.9708 63.1291 52.9709C63.2878 52.971 63.4448 53.0025 63.5913 53.0634C63.7378 53.1243 63.8708 53.2135 63.9827 53.3259C66.6773 56.0238 70.513 60.1428 73.4748 64.4358C74.1524 65.4194 74.7465 66.3563 75.2535 67.2464Z" fill="#EDC932"/>
<path d="M17.7262 55.0308C10.9609 61.8073 6.33797 68.1703 5.19031 72.1317C5.02311 70.5056 4.87502 68.8777 4.74609 67.2481V67.2466C5.25469 66.3564 5.84703 65.4195 6.52469 64.4361C9.48797 60.1431 13.3222 56.0241 16.0167 53.3262C16.1286 53.2138 16.2616 53.1246 16.4081 53.0636C16.5546 53.0027 16.7117 52.9712 16.8703 52.9711C17.0289 52.9709 17.1861 53.0021 17.3326 53.0628C17.4792 53.1234 17.6124 53.2125 17.7245 53.3247C18.1962 53.7945 18.1962 54.5591 17.7262 55.0308ZM74.6656 26.2955V26.2859C74.348 23.3983 72.033 21.1352 69.1361 20.9067C49.7415 19.3756 30.2563 19.3756 10.8617 20.9067C7.96219 21.1353 5.64562 23.402 5.33125 26.2933L5.33188 26.2955C4.98734 30.2277 8.51406 36.3536 13.8916 42.4169C14.0783 42.6261 14.2666 41.1628 14.4566 41.3722C14.603 41.5347 14.7511 41.6958 14.9023 41.8598C17.7497 44.9341 21.0428 47.9569 24.518 50.6305C29.5687 54.5159 35.0011 57.6611 39.9987 59.1531C45.0866 57.6337 50.6283 54.4002 55.7564 50.4164C57.0561 49.4057 58.3234 48.3541 59.5566 47.2633C61.7183 45.3544 63.7544 43.3439 65.5908 41.3175C65.7647 41.1259 65.9369 42.6069 66.1058 42.4153C71.4836 36.352 75.0102 30.2261 74.6656 26.2955Z" fill="#EDC932"/>
<path d="M66.1103 42.4153C65.94 42.608 65.7683 42.7995 65.5953 42.9899C63.7588 45.0163 61.7227 47.0266 59.5611 48.9356C58.3279 50.0264 57.0606 51.078 55.761 52.0888C50.6328 56.0725 45.0911 59.3061 40.0033 60.8255C35.0056 59.3334 29.5733 56.1883 24.5225 52.3028C21.0475 49.6294 17.7542 46.6066 14.9069 43.5322C14.567 43.1631 14.23 42.7913 13.8961 42.4167C13.6029 34.4765 13.6131 26.528 13.9267 18.5886L32.995 0.127034C42.1856 -0.206091 51.3763 0.115784 60.5669 1.09282C63.1228 1.36485 65.1252 3.41219 65.3296 5.97469C66.2983 18.096 66.559 30.2636 66.1103 42.4153Z" fill="#F1F4F6"/>
<path d="M66.2947 34.7972C66.2638 37.3372 66.2016 39.8768 66.108 42.4153C65.9376 42.608 65.766 42.7995 65.593 42.9898C63.7564 45.0163 61.7203 47.0267 59.5588 48.9356C58.3256 50.0264 57.0582 51.078 55.7586 52.0888C50.6305 56.0725 45.0887 59.3061 40.0009 60.8255C35.0033 59.3334 29.5709 56.1883 24.5202 52.3028C21.0452 49.6294 17.7519 46.6066 14.9045 43.5322C14.5645 43.1632 14.2276 42.7913 13.8937 42.4167C13.8003 39.8769 13.7377 37.3386 13.707 34.7986C14.1 35.2472 14.4991 35.6855 14.9045 36.1266C17.7519 39.2008 21.045 42.2236 24.5202 44.8972C29.5709 48.7827 35.0033 51.9278 40.0009 53.4198C45.0887 51.9005 50.6305 48.6667 55.7586 44.6831C57.0582 43.6724 58.3256 42.6208 59.5588 41.53C61.7205 39.6211 63.7566 37.6106 65.593 35.5842C65.8296 35.3243 66.0635 35.0619 66.2947 34.7972ZM13.9236 18.5891C18.4416 18.4266 22.9595 18.1041 27.4787 17.6231C30.0339 17.3517 32.037 15.3044 32.2412 12.7425C32.5765 8.54304 32.8269 4.33723 32.9922 0.127655C28.4742 0.290311 14.0889 14.3842 13.9236 18.5891Z" fill="#D0E2E7"/>
<path d="M31.543 42.0716C31.5467 43.9842 34.3784 45.5327 36.2911 45.5327H51.0945C52.6336 45.5327 53.8816 44.2848 53.8816 42.7448C53.8816 41.9753 53.5705 41.2777 53.0661 40.7733C52.5617 40.2689 51.8641 39.957 51.0945 39.957H52.0952C53.6342 39.957 54.883 38.7102 54.883 37.1692C54.883 36.3988 54.5719 35.703 54.0658 35.1977C53.8073 34.9385 53.5002 34.733 53.162 34.593C52.8237 34.453 52.4612 34.3814 52.0952 34.3822H53.0967C54.617 34.3822 55.8531 33.1641 55.8828 31.65C55.9142 30.0856 54.5981 28.8064 53.0338 28.8064H52.0952C53.6342 28.8064 54.883 27.5586 54.883 26.0177C54.883 25.2472 54.5719 24.5514 54.0658 24.0461C53.8073 23.7869 53.5002 23.5814 53.162 23.4414C52.8237 23.3015 52.4612 23.2298 52.0952 23.2306H44.2544L44.2288 23.1902L47.2864 16.6767C48.1539 14.8302 47.3592 12.6302 45.5127 11.7627C45.0225 11.5317 44.4874 11.412 43.9456 11.412C42.5575 11.412 41.2278 12.1978 40.5986 13.5373L39.2914 16.3225C38.5192 17.9669 37.282 19.3567 35.7159 20.2755C34.682 20.8814 33.8208 21.8056 33.2948 22.9888C32.9463 23.7728 32.7742 24.6238 32.7905 25.4817L31.543 42.0716Z" fill="#FFDDCE"/>
<path d="M46.6538 12.598C46.5283 12.5847 46.4022 12.578 46.2761 12.5781C44.888 12.5781 43.5583 13.3639 42.9291 14.7034L41.6219 17.4886C40.8497 19.133 39.6125 20.5228 38.0464 21.4416C37.0125 22.0475 33.2933 22.9888 33.1558 30.0344C33.145 30.5845 32.9463 31.0925 32.8006 31.5995L32.7889 25.4817C32.7726 24.6238 32.9448 23.7728 33.2933 22.9888C33.8192 21.8056 34.6805 20.8814 35.7144 20.2755C37.2805 19.3567 38.5175 17.9667 39.2898 16.3225L40.597 13.5373C41.2264 12.1978 42.5559 11.412 43.9441 11.412C44.47 11.412 45.0041 11.5244 45.5111 11.7627C45.9425 11.9644 46.3306 12.2481 46.6538 12.598ZM53.8802 42.7448C53.8802 44.2848 52.6323 45.5327 51.0931 45.5327H35.9033C35.1185 45.5328 34.3449 45.3467 33.646 44.9897C32.9471 44.6327 32.3428 44.1151 31.8828 43.4792H51.0931C52.27 43.4792 53.2759 42.7502 53.685 41.718C53.6859 41.7189 53.6859 41.7206 53.6877 41.7216C53.6877 41.7216 53.6867 41.7225 53.6877 41.7225C53.8152 42.0482 53.8806 42.395 53.8802 42.7448ZM54.685 36.1423C54.8145 36.4691 54.881 36.8174 54.8808 37.1689C54.8808 38.7097 53.6331 39.9573 52.0936 39.9573H51.0253C50.753 39.9573 50.4919 39.8492 50.2993 39.6566C50.1068 39.4641 49.9986 39.2029 49.9986 38.9306C49.9986 38.6583 50.1068 38.3972 50.2993 38.2046C50.4919 38.0121 50.753 37.9039 51.0253 37.9039H52.0936C53.2705 37.9039 54.2763 37.1742 54.685 36.1423ZM55.6864 30.5667C55.8159 30.8935 55.8824 31.2418 55.8822 31.5933C55.8822 33.1341 54.6345 34.3817 53.095 34.3817H52.0267C51.7544 34.3817 51.4933 34.2735 51.3007 34.081C51.1082 33.8885 51 33.6273 51 33.355C51 33.0827 51.1082 32.8216 51.3007 32.629C51.4933 32.4365 51.7544 32.3283 52.0267 32.3283H53.095C54.272 32.3283 55.2777 31.5988 55.6864 30.5667ZM54.6861 24.9911C54.8156 25.3178 54.8821 25.6662 54.8819 26.0177C54.8819 27.5584 53.6342 28.8061 52.0947 28.8061H51.0264C50.7541 28.8061 50.493 28.6979 50.3004 28.5054C50.1079 28.3128 49.9997 28.0517 49.9997 27.7794C49.9997 27.5071 50.1079 27.2459 50.3004 27.0534C50.493 26.8608 50.7541 26.7527 51.0264 26.7527H52.0947C53.2717 26.7527 54.2773 26.023 54.6861 24.9911Z" fill="#FFCBBE"/>
<path d="M24.1211 25.4817V42.8667C24.1211 44.0725 25.0986 45.0499 26.3042 45.0499H30.6089C31.8147 45.0499 32.792 44.0723 32.792 42.8667V25.4817C32.792 24.2759 31.8145 23.2986 30.6089 23.2986H26.3042C25.0986 23.2986 24.1211 24.2761 24.1211 25.4817Z" fill="#9DC6FB"/>
<path d="M24.1211 37.3908V42.8672C24.1211 44.0728 25.0992 45.0498 26.3048 45.0498H30.6094C31.8152 45.0498 32.792 44.073 32.792 42.8672V37.3908C32.792 38.5966 31.8152 39.5745 30.6094 39.5745H26.3048C25.0991 39.5747 24.1211 38.5966 24.1211 37.3908Z" fill="#80B4FB"/>
</g>
<defs>
<clipPath id="clip0_309_4466">
<rect width="80" height="80" fill="white"/>
</clipPath>
</defs>
</svg>
