<svg width="48" height="48" viewBox="0 0 48 48" fill="none" xmlns="http://www.w3.org/2000/svg">
<path d="M17.4548 12.6545C11.2003 12.6545 6.10938 17.7455 6.10938 24C6.10938 30.2545 11.2003 35.3455 17.4548 35.3455C23.7094 35.3455 28.8003 30.2545 28.8003 24C28.873 17.7455 23.7821 12.6545 17.4548 12.6545ZM17.4548 33.8909C12.0003 33.8909 7.56392 29.4545 7.56392 24C7.56392 18.5455 12.0003 14.1091 17.4548 14.1091C22.9094 14.1091 27.3457 18.5455 27.3457 24C27.3457 29.4545 22.9821 33.8909 17.4548 33.8909ZM46.5457 7.12727C46.1094 7.12727 45.8185 7.41818 45.8185 7.85455V14.1091H44.873V7.85455C44.873 7.41818 44.5821 7.12727 44.1457 7.12727C43.7094 7.12727 43.4185 7.41818 43.4185 7.85455V14.1091H42.6912V7.85455C42.6912 7.41818 42.4003 7.12727 41.9639 7.12727C41.5276 7.12727 41.2367 7.41818 41.2367 7.85455V14.1091H40.2912V7.85455C40.2912 7.41818 40.0003 7.12727 39.5639 7.12727C39.1276 7.12727 38.8366 7.41818 38.8366 7.85455V14.8364C38.8366 17.0182 40.3639 18.8364 42.3276 19.2V25.0909H41.7457C41.3821 25.0909 41.0185 25.3818 41.0185 25.7455L40.0003 37.5273C39.8548 39.3455 41.2367 40.9455 43.0548 40.9455C44.873 40.9455 46.1821 39.3455 46.1094 37.5273L45.0912 25.7455C45.0912 25.3818 44.7276 25.0909 44.3639 25.0909H43.7821V19.2C45.7457 18.8364 47.273 17.0182 47.273 14.8364V7.85455C47.273 7.41818 46.9821 7.12727 46.5457 7.12727ZM44.5821 37.6C44.7276 40 41.2366 40 41.4548 37.6L42.4003 26.5455H43.6366L44.5821 37.6ZM43.0548 17.8182C41.7457 17.8182 40.6548 16.8727 40.3639 15.5636H45.7457C45.4548 16.8727 44.3639 17.8182 43.0548 17.8182Z" fill="#88A49C"/>
<path d="M37.1639 7.12728C36.873 7.05455 36.5821 7.12728 36.3639 7.34546C34.2548 9.81819 32.6548 12.9455 31.7094 16.5091C28.9457 11.0546 23.3457 7.56364 17.0912 7.56364C8.07299 7.63637 0.727539 14.9818 0.727539 24C0.727539 33.0182 8.07299 40.3636 17.0912 40.3636C25.3094 40.3636 32.2185 34.3273 33.3094 26.2546H33.8912L32.8003 38.2546C32.6548 39.6364 33.8185 40.8727 35.2003 40.8727C36.5094 40.8727 37.673 39.7818 37.673 38.4V7.85455C37.673 7.56364 37.4548 7.27273 37.1639 7.12728ZM36.2185 24.8H31.9275C32.1457 18.7636 33.6003 13.7455 36.1457 9.96364V24.8H36.2185ZM17.0912 38.9091C8.87299 38.9091 2.18208 32.2182 2.18208 24C2.18208 15.7818 8.87299 9.09092 17.0912 9.09092C23.3457 9.09092 29.0184 13.0182 31.1275 18.9818C30.7639 20.8727 30.5457 22.8364 30.473 25.0182C30.473 25.3818 30.6185 25.6727 30.8366 25.9636C31.0548 26.1818 31.4185 26.3273 31.7821 26.3273H31.8548C30.7639 33.5273 24.5821 38.9091 17.0912 38.9091ZM36.2185 38.4727C36.2185 38.9818 35.7821 39.4909 35.2003 39.4909C34.6185 39.4909 34.1821 38.9818 34.2548 38.4L35.3457 26.2546H36.2185V38.4727Z" fill="#88A49C"/>
<path d="M34.6908 37.6727C34.3999 37.8909 34.3999 38.4 34.6908 38.6909C34.9817 38.9818 35.4181 38.9818 35.709 38.6909C35.9999 38.4 35.9999 37.9636 35.709 37.6727C35.4181 37.4545 34.9817 37.4545 34.6908 37.6727Z" fill="#88A49C"/>
</svg>
