<svg width="80" height="80" viewBox="0 0 80 80" fill="none" xmlns="http://www.w3.org/2000/svg">
<g clip-path="url(#clip0_60_14657)">
<path d="M79.1876 63.2903C78.9055 65.8641 76.8208 67.8748 74.2373 68.0558C74.0236 68.0709 73.8114 68.0859 73.5991 68.0997C72.0239 68.2066 70.7992 69.5147 70.7992 71.0939V77.0633C70.7992 79.0714 68.5008 80.2109 66.9036 78.9947C63.9887 76.7744 60.1109 73.4719 57.7317 70.0473C57.1687 69.2364 56.2387 68.7639 55.2511 68.7694C47.9193 68.8073 40.5886 68.5693 33.2747 68.0558C31.2323 67.9133 29.4983 66.6298 28.7258 64.8245C28.5166 64.3402 28.3813 63.8273 28.3244 63.3028C27.2395 53.3927 27.2395 43.4811 28.3244 33.5694C28.6066 30.9983 30.6927 28.997 33.2719 28.8163C44.1667 28.0508 55.0958 27.8971 66.0078 28.3559C68.75 28.4697 71.4937 28.623 74.2359 28.8163C76.8166 28.997 78.9041 30.9983 79.1862 33.5694C80.2712 43.4769 80.2712 53.383 79.1876 63.2903Z" fill="#9DC6FB"/>
<path d="M31.1187 33.2969C30.0076 43.4441 30.0076 53.5923 31.1187 63.7375C31.1769 64.2747 31.3154 64.8002 31.5295 65.2964C32.0677 66.5513 33.0548 67.5602 34.2976 68.1258C33.9565 68.1036 33.6154 68.0803 33.2741 68.0561C31.2316 67.9136 29.4974 66.6303 28.7254 64.8244C28.5157 64.3402 28.3804 63.8271 28.324 63.3025C27.2384 53.393 27.2384 43.4811 28.324 33.5694C28.606 30.9987 30.6918 28.9973 33.2709 28.8169C33.7746 28.782 34.2784 28.7472 34.7832 28.7155C32.819 29.3913 31.3541 31.1508 31.1187 33.2969Z" fill="#80B4FB"/>
<path d="M0.782227 35.0011C1.05348 37.4759 3.05816 39.4095 5.54238 39.5834C5.74785 39.598 5.95207 39.6123 6.15613 39.6256C7.67082 39.7283 8.84832 40.9863 8.84832 42.5048V48.2448C8.84832 50.1758 11.0585 51.2716 12.5943 50.102C15.3971 47.967 19.1258 44.7914 21.4138 41.4986C21.9552 40.7189 22.8494 40.2644 23.7991 40.2697C30.8432 40.3053 37.8871 40.0788 44.9311 39.5834C46.8949 39.4464 48.5624 38.2123 49.3054 36.4762C49.5064 36.0105 49.6365 35.5173 49.6913 35.013C50.7344 25.4836 50.7344 15.9528 49.6913 6.42203C49.4199 3.94984 47.4139 2.02547 44.9338 1.85156C34.4576 1.11555 23.9483 0.967822 13.4555 1.40906C10.8186 1.51844 8.18035 1.66594 5.54348 1.85156C3.06207 2.02547 1.05488 3.94969 0.783477 6.42203C-0.259648 15.9487 -0.259648 25.4742 0.782227 35.0011Z" fill="#F9DA41"/>
<path d="M3.47012 6.16C2.40184 15.9173 2.40184 25.6756 3.47012 35.4309C3.52617 35.9475 3.65932 36.4527 3.86512 36.9298C4.38265 38.1365 5.33179 39.1067 6.52684 39.6505C6.19887 39.6292 5.87074 39.6067 5.54277 39.5834C3.57871 39.4464 1.91121 38.2125 1.16887 36.4759C0.967287 36.0103 0.837175 35.517 0.78293 35.0125C-0.260977 25.4838 -0.260977 15.9528 0.78293 6.42188C1.05402 3.95 3.0598 2.02563 5.5398 1.85188C6.02418 1.81844 6.50871 1.78484 6.99402 1.75438C5.10512 2.40453 3.69652 4.09641 3.47012 6.16Z" fill="#EDC932"/>
<path d="M62.1276 57.0081L55.3003 38.917C55.1829 38.6108 54.9752 38.3475 54.7048 38.162C54.4344 37.9765 54.114 37.8776 53.7861 37.8783H53.7845C53.4573 37.8779 53.1378 37.9767 52.8679 38.1616C52.598 38.3465 52.3906 38.609 52.2729 38.9142L45.3832 57.0047C45.3268 57.1528 45.3001 57.3106 45.3046 57.4691C45.3092 57.6276 45.3449 57.7836 45.4098 57.9283C45.4746 58.0729 45.5674 58.2034 45.6826 58.3122C45.7979 58.421 45.9335 58.5061 46.0817 58.5625C46.2298 58.6189 46.3876 58.6457 46.5461 58.6411C46.7046 58.6366 46.8606 58.6008 47.0053 58.536C47.1499 58.4711 47.2804 58.3784 47.3892 58.2631C47.498 58.1478 47.5831 58.0122 47.6395 57.8641L49.0593 54.1361H58.4629L59.8684 57.8606C59.9226 58.0113 60.0063 58.1497 60.1145 58.2678C60.2227 58.3858 60.3533 58.4812 60.4987 58.5483C60.6441 58.6154 60.8014 58.6529 60.9615 58.6586C61.1215 58.6643 61.2811 58.6382 61.4309 58.5816C61.5807 58.5251 61.7178 58.4393 61.8342 58.3293C61.9506 58.2192 62.0439 58.0872 62.1087 57.9407C62.1736 57.7943 62.2086 57.6364 62.2119 57.4763C62.2151 57.3162 62.1865 57.1571 62.1276 57.0081ZM49.979 51.7217L53.7828 41.7342L57.5518 51.7217H49.979ZM35.2998 28.4958L33.4043 26.6003C34.7678 24.8433 35.5825 22.6402 35.5825 20.2491C35.5825 14.5247 30.9253 9.8675 25.2009 9.8675C19.4765 9.8675 14.8193 14.5247 14.8193 20.2491C14.8193 25.9736 19.4765 30.6308 25.2009 30.6308C27.6661 30.6308 29.9318 29.7656 31.7145 28.325L33.5925 30.2031C33.8282 30.4389 34.1371 30.5567 34.4461 30.5567C34.755 30.5567 35.064 30.4388 35.2997 30.2031C35.4118 30.091 35.5008 29.958 35.5615 29.8115C35.6222 29.665 35.6534 29.508 35.6534 29.3495C35.6534 29.1909 35.6222 29.0339 35.5615 28.8875C35.5009 28.741 35.4119 28.6079 35.2998 28.4958ZM25.2009 28.2164C20.8078 28.2164 17.2339 24.6423 17.2339 20.2492C17.2339 15.8561 20.8079 12.2822 25.2009 12.2822C29.5939 12.2822 33.1679 15.8563 33.1679 20.2492C33.1679 21.9739 32.6153 23.5709 31.6803 24.8764L29.4296 22.6259C29.2024 22.4035 28.8966 22.2797 28.5787 22.2814C28.2607 22.2831 27.9562 22.4102 27.7314 22.635C27.5066 22.8599 27.3795 23.1643 27.3778 23.4823C27.3761 23.8003 27.4999 24.106 27.7223 24.3333L29.9959 26.6069C28.6611 27.6162 27 28.2164 25.2009 28.2164Z" fill="#21386B"/>
<path d="M70.3781 22.7706L70.2878 22.4336C69.9694 21.245 70.6256 20.0127 71.7897 19.6134L75.3703 18.3858C76.6528 17.9461 78.0395 18.6845 78.3905 19.9942L78.6148 20.8317C78.9658 22.1414 78.1341 23.4742 76.8036 23.7347L73.0889 24.4619C71.8811 24.6984 70.6967 23.9594 70.3781 22.7706ZM64.6581 14.7891L64.4114 14.5423C63.5413 13.6722 63.4934 12.2769 64.302 11.3492L66.7892 8.49578C67.6802 7.47375 69.2503 7.41984 70.2089 8.37859L70.822 8.99172C71.7808 9.95047 71.727 11.5206 70.7048 12.4114L67.8513 14.8984C66.9236 15.707 65.5283 15.6592 64.6581 14.7891ZM56.7667 8.9125L56.4297 8.82219C55.2411 8.50375 54.5019 7.31922 54.7383 6.11156L55.4655 2.39687C55.7259 1.06625 57.0589 0.234687 58.3684 0.585625L59.2059 0.81C60.5156 1.16094 61.2541 2.54766 60.8144 3.83016L59.5867 7.41078C59.1877 8.57484 57.9555 9.23109 56.7667 8.9125Z" fill="#F1F4F6"/>
</g>
<defs>
<clipPath id="clip0_60_14657">
<rect width="80" height="80" fill="white"/>
</clipPath>
</defs>
</svg>
