<svg xmlns="http://www.w3.org/2000/svg" xmlns:xlink="http://www.w3.org/1999/xlink" width="0" height="0" style="position:absolute">
	
		<symbol id="address-book" viewBox="0 0 20 20">
			<g clip-path="url(#a)"><path d="M15 0H6.666a4.167 4.167 0 0 0-3.813 2.5H1.666a.833.833 0 0 0 0 1.667H2.5v1.666h-.834a.833.833 0 0 0 0 1.667H2.5v1.667h-.834a.833.833 0 1 0 0 1.666H2.5V12.5h-.834a.833.833 0 1 0 0 1.667H2.5v1.666h-.834a.833.833 0 1 0 0 1.667h1.187A4.167 4.167 0 0 0 6.666 20H15a4.172 4.172 0 0 0 4.166-4.167V4.167A4.172 4.172 0 0 0 15 0zm2.5 15.833a2.5 2.5 0 0 1-2.5 2.5H6.666a2.5 2.5 0 0 1-2.5-2.5V4.167a2.5 2.5 0 0 1 2.5-2.5H15a2.5 2.5 0 0 1 2.5 2.5v11.666zM10.833 10a2.5 2.5 0 1 0 0-5 2.5 2.5 0 0 0 0 5zM15 15a.833.833 0 0 1-1.667 0 2.5 2.5 0 0 0-5 0 .833.833 0 0 1-1.667 0c.176-5.507 8.16-5.505 8.334 0z"></path></g><defs><clipPath id="a"><path fill="#fff" d="M0 0h20v20H0z"></path></clipPath></defs>
		</symbol>
	
		<symbol id="angle-small-down" viewBox="0 0 20 20">
			<path d="M15.592 13.158a.834.834 0 0 1-1.184 0l-3.816-3.816a.834.834 0 0 0-1.184 0l-3.816 3.816a.833.833 0 1 1-1.184-1.175l3.825-3.825a2.5 2.5 0 0 1 3.534 0l3.825 3.825a.834.834 0 0 1 0 1.175z" fill="#fff"></path>
		</symbol>
	
		<symbol id="angle-small-right" viewBox="0 0 24 24">
			<path d="M8.21 5.29a1 1 0 0 0 0 1.42l4.58 4.58a.998.998 0 0 1 0 1.42l-4.58 4.58a.999.999 0 0 0 0 1.42 1 1 0 0 0 1.41 0l4.59-4.59a3 3 0 0 0 0-4.24L9.62 5.29a1 1 0 0 0-1.41 0z" fill="#294A41"></path>
		</symbol>
	
		<symbol id="arrow" viewBox="0 0 14 7">
			<path d="M12.5 2.634a1 1 0 0 1 0 1.732l-2.25 1.3a1 1 0 0 1-1.5-.867V2.201a1 1 0 0 1 1.5-.866l2.25 1.299z" fill="#88A49C"></path><path stroke="#88A49C" d="M10 3.5H0"></path>
		</symbol>
	
		<symbol id="arrow-right" viewBox="0 0 24 24">
			<path d="M7.97 19.53a.75.75 0 0 1-.073-.976l.073-.084L14.439 12l-6.47-6.47a.75.75 0 0 1-.072-.976l.073-.084a.75.75 0 0 1 .976-.073l.084.073 7 7a.75.75 0 0 1 .073.976l-.073.084-7 7a.75.75 0 0 1-1.06 0z" fill="#000"></path>
		</symbol>
	
		<symbol id="arrow_blue" viewBox="0 0 21 9">
			<path d="M19.5 3.634a1 1 0 0 1 0 1.732l-3.75 2.165a1 1 0 0 1-1.5-.866v-4.33a1 1 0 0 1 1.5-.866l3.75 2.165z" fill="#328FDF"></path><path stroke="#328FDF" d="M19 4.5H0"></path>
		</symbol>
	
		<symbol id="arrow_red" viewBox="0 0 21 9">
			<path d="M19.5 3.634a1 1 0 0 1 0 1.732l-3.75 2.165a1 1 0 0 1-1.5-.866v-4.33a1 1 0 0 1 1.5-.866l3.75 2.165z" fill="#F58C8C"></path><path stroke="#F58C8C" d="M19 4.5H0"></path>
		</symbol>
	
		<symbol id="asterik" viewBox="0 0 20 20">
			<g clip-path="url(#a)"><path d="M17.114 10.583L16.173 10l.942-.583a3.439 3.439 0 0 0 1.441-1.693 3.265 3.265 0 0 0-2.733-4.393 3.437 3.437 0 0 0-2.155.545l-.334.207v-.606A3.43 3.43 0 0 0 10.328.016a3.333 3.333 0 0 0-3.661 3.317v.75l-.334-.208a3.435 3.435 0 0 0-2.155-.547 3.265 3.265 0 0 0-2.736 4.391c.28.709.787 1.304 1.441 1.693l.945.588-.943.583a3.438 3.438 0 0 0-1.44 1.693 3.265 3.265 0 0 0 2.738 4.393 3.436 3.436 0 0 0 2.15-.542l.334-.21v.75a3.333 3.333 0 0 0 6.667 0v-.75l.333.209a3.439 3.439 0 0 0 2.15.544 3.263 3.263 0 0 0 2.736-4.393 3.44 3.44 0 0 0-1.439-1.694zm-.259 3.682a1.597 1.597 0 0 1-2.199.51l-1.716-1.068a.834.834 0 0 0-1.273.71v2.25a1.667 1.667 0 0 1-3.334 0v-2.25a.834.834 0 0 0-1.273-.708l-1.716 1.07a1.595 1.595 0 0 1-2.398-1.716 1.596 1.596 0 0 1 .71-.994l2.188-1.362a.833.833 0 0 0 0-1.416L3.657 7.93a1.596 1.596 0 1 1 1.687-2.71L7.06 6.288a.833.833 0 0 0 1.273-.705v-2.16A1.73 1.73 0 0 1 9.72 1.689a1.666 1.666 0 0 1 1.947 1.644v2.25a.834.834 0 0 0 1.273.707l1.716-1.067a1.596 1.596 0 0 1 1.687 2.71l-2.187 1.361a.833.833 0 0 0 0 1.417l2.187 1.361a1.596 1.596 0 0 1 .512 2.199v-.006z"></path></g><defs><clipPath id="a"><path fill="#fff" d="M0 0h20v20H0z"></path></clipPath></defs>
		</symbol>
	
		<symbol id="comments" viewBox="0 0 20 20">
			<g clip-path="url(#a)"><path d="M20 13.333V17.5a2.5 2.5 0 0 1-2.5 2.5h-4.167a6.666 6.666 0 0 1-5.766-3.334 9.141 9.141 0 0 0 1.868-.206 4.99 4.99 0 0 0 3.898 1.873H17.5a.833.833 0 0 0 .833-.833v-4.167a4.991 4.991 0 0 0-1.876-3.898c.134-.614.204-1.24.21-1.869A6.666 6.666 0 0 1 20 13.333zm-5.02-5.29A7.498 7.498 0 0 0 6.958.018 7.848 7.848 0 0 0 0 7.745v4.2C0 14.055 1.256 15 2.5 15h4.75a7.85 7.85 0 0 0 7.73-6.958zm-3.355-4.667a5.848 5.848 0 0 1 1.693 4.55 6.136 6.136 0 0 1-6.068 5.407H2.5c-.773 0-.833-1.062-.833-1.388v-4.2A6.135 6.135 0 0 1 7.075 1.68a5.843 5.843 0 0 1 4.55 1.694z"></path></g><defs><clipPath id="a"><path fill="#fff" d="M0 0h20v20H0z"></path></clipPath></defs>
		</symbol>
	
		<symbol id="cross" viewBox="0 0 32 32">
			<path d="M4.292 5.708a1.001 1.001 0 1 1 1.416-1.416L16 14.586 26.292 4.292a1.002 1.002 0 0 1 1.416 1.416L17.414 16l10.294 10.292a1 1 0 1 1-1.416 1.416L16 17.414 5.708 27.708a1 1 0 1 1-1.416-1.416L14.586 16 4.292 5.708z" fill="#fff"></path>
		</symbol>
	
		<symbol id="document" viewBox="0 0 20 20">
			<g clip-path="url(#a)"><path d="M14.167 11.667a.833.833 0 0 1-.833.833H6.667a.833.833 0 1 1 0-1.667h6.667a.833.833 0 0 1 .833.834zm-3.333 2.5H6.667a.834.834 0 0 0 0 1.666h4.167a.833.833 0 0 0 0-1.666zm7.5-5.43v7.096A4.172 4.172 0 0 1 14.167 20H5.834a4.171 4.171 0 0 1-4.167-4.167V4.167A4.172 4.172 0 0 1 5.834 0h3.762a5.799 5.799 0 0 1 4.125 1.708l2.904 2.905a5.791 5.791 0 0 1 1.709 4.124zm-5.791-5.85a4.173 4.173 0 0 0-.876-.65v3.596a.833.833 0 0 0 .833.834h3.597a4.153 4.153 0 0 0-.65-.875l-2.904-2.905zm4.124 5.85c0-.137-.027-.269-.04-.404H12.5a2.5 2.5 0 0 1-2.5-2.5V1.706c-.135-.013-.267-.04-.404-.04H5.834a2.5 2.5 0 0 0-2.5 2.5v11.667a2.5 2.5 0 0 0 2.5 2.5h8.333a2.5 2.5 0 0 0 2.5-2.5V8.737z"></path></g><defs><clipPath id="a"><path fill="#fff" d="M0 0h20v20H0z"></path></clipPath></defs>
		</symbol>
	
		<symbol id="gallery" viewBox="0 0 17 17">
			<path d="M.5 5A1.5 1.5 0 0 1 2 3.5h10A1.5 1.5 0 0 1 13.5 5v10a1.5 1.5 0 0 1-1.5 1.5H2A1.5 1.5 0 0 1 .5 15V5z"></path><path d="M3.5 2A1.5 1.5 0 0 1 5 .5h10A1.5 1.5 0 0 1 16.5 2v10a1.5 1.5 0 0 1-1.5 1.5H5A1.5 1.5 0 0 1 3.5 12V2z" fill="transparent"></path>
		</symbol>
	
		<symbol id="hand-holding" viewBox="0 0 20 20">
			<g clip-path="url(#a)"><path d="M17.379 12.776l-3.144 5.13A4.363 4.363 0 0 1 10.488 20a4.343 4.343 0 0 1-2.5-.796 3.95 3.95 0 0 1-5.574-5.471l-1.096-1.095a4.386 4.386 0 0 1 .796-6.833l4.806-2.971a7.383 7.383 0 0 1 8.606.459l1.382-1.383a.833.833 0 1 1 1.178 1.178l-1.38 1.382a7.46 7.46 0 0 1 .674 8.306zM6.717 18.039l-3.099-3.1a2.268 2.268 0 0 0 .386 2.72 2.355 2.355 0 0 0 2.713.38zm8.268-13a5.74 5.74 0 0 0-7.181-.789L2.99 7.222a2.72 2.72 0 0 0-.494 4.238l6.075 6.076a2.72 2.72 0 0 0 4.245-.5l3.129-5.104a5.78 5.78 0 0 0-.96-6.897v.004zM16.05 20a.834.834 0 0 1-.493-1.506 7.194 7.194 0 0 0 2.762-4.506.83.83 0 0 1 .996-.647.833.833 0 0 1 .632 1.005 8.917 8.917 0 0 1-3.407 5.494.834.834 0 0 1-.49.16zM.83 4.783a.833.833 0 0 1-.667-1.329A8.91 8.91 0 0 1 5.757.017.834.834 0 0 1 6.09 1.65a7.197 7.197 0 0 0-4.594 2.795.833.833 0 0 1-.666.338z"></path></g><defs><clipPath id="a"><path fill="#fff" d="M0 0h20v20H0z"></path></clipPath></defs>
		</symbol>
	
		<symbol id="headset" viewBox="0 0 20 20">
			<path d="M17.5 10.353V9.166a7.5 7.5 0 0 0-15 0v1.187a4.167 4.167 0 0 0 1.666 7.98 1.667 1.667 0 0 0 1.667-1.667v-5A1.667 1.667 0 0 0 4.166 10v-.834a5.833 5.833 0 1 1 11.667 0V10a1.666 1.666 0 0 0-1.667 1.666v5h-2.5a.833.833 0 1 0 0 1.667h4.167a4.167 4.167 0 0 0 1.667-7.98zM4.166 16.666a2.5 2.5 0 0 1 0-5v5zm11.667 0v-5a2.5 2.5 0 0 1 0 5z" fill="#88A49C"></path>
		</symbol>
	
		<symbol id="heart" viewBox="0 0 20 20">
			<path d="M6.9 2.084a5.202 5.202 0 0 1 1.525.275h.05a.291.291 0 0 1 .074.05c.185.058.359.125.525.217l.317.141c.125.067.275.191.358.242.084.05.175.1.25.158a5.22 5.22 0 0 1 3.209-1.083c.525 0 1.05.074 1.55.242 3.076 1 4.184 4.375 3.258 7.325a10.606 10.606 0 0 1-2.507 4.007 32.043 32.043 0 0 1-5.276 4.133l-.209.126-.216-.134A31.746 31.746 0 0 1 4.5 13.65a10.778 10.778 0 0 1-2.509-4c-.942-2.95.167-6.324 3.276-7.342.242-.083.49-.141.74-.174h.1c.235-.034.467-.05.7-.05H6.9zm7.424 2.633a.667.667 0 0 0-.841.417.682.682 0 0 0 .416.858c.535.2.892.725.892 1.308v.026a.716.716 0 0 0 .158.516.698.698 0 0 0 .475.242.685.685 0 0 0 .659-.634v-.1a2.75 2.75 0 0 0-1.759-2.633z" fill="#05AF7F"></path>
		</symbol>
	
		<symbol id="histogram" viewBox="0 0 20 20">
			<g clip-path="url(#a)"><path d="M19.167 18.333h-15a2.5 2.5 0 0 1-2.5-2.5v-15A.833.833 0 0 0 0 .833v15A4.172 4.172 0 0 0 4.167 20h15a.833.833 0 0 0 0-1.667z"></path><path d="M5 16.667a.833.833 0 0 0 .834-.834V10a.833.833 0 0 0-1.667 0v5.833a.833.833 0 0 0 .833.834zM8.333 8.333v7.5a.833.833 0 0 0 1.667 0v-7.5a.833.833 0 1 0-1.667 0zM12.5 10.833v5a.833.833 0 0 0 1.667 0v-5a.833.833 0 0 0-1.667 0zM16.667 7.5v8.333a.833.833 0 0 0 1.667 0V7.5a.833.833 0 1 0-1.667 0zM5 7.5a.833.833 0 0 0 .59-.244l2.988-2.989a.854.854 0 0 1 1.178 0l1.81 1.81a2.5 2.5 0 0 0 3.535 0l4.655-4.655A.833.833 0 0 0 18.578.244l-4.655 4.654a.833.833 0 0 1-1.179 0l-1.81-1.809a2.5 2.5 0 0 0-3.535 0L4.411 6.077a.833.833 0 0 0 .59 1.423z"></path></g><defs><clipPath id="a"><path fill="#fff" d="M0 0h20v20H0z"></path></clipPath></defs>
		</symbol>
	
		<symbol id="next" viewBox="0 0 22 22">
			<path d="M8 18.84l6.52-6.52c.77-.77.77-2.03 0-2.8L8 3" stroke="#fff" stroke-width="1.5" stroke-miterlimit="10" stroke-linecap="round" stroke-linejoin="round"></path>
		</symbol>
	
		<symbol id="next-small" viewBox="0 0 32 32">
			<path d="M18.982 16l-6.616-6.805a1.312 1.312 0 0 1 0-1.818 1.226 1.226 0 0 1 1.768 0l7.5 7.714a1.312 1.312 0 0 1 0 1.818l-7.5 7.714a1.226 1.226 0 0 1-1.768 0 1.312 1.312 0 0 1 0-1.818L18.982 16z" fill="#fff"></path>
		</symbol>
	
		<symbol id="prev" viewBox="0 0 22 22">
			<path d="M14.098 18.84l-6.52-6.52c-.77-.77-.77-2.03 0-2.8L14.098 3" stroke="#fff" stroke-width="1.5" stroke-miterlimit="10" stroke-linecap="round" stroke-linejoin="round"></path>
		</symbol>
	
		<symbol id="prev-small" viewBox="0 0 32 32">
			<path d="M13.018 16l6.616-6.805a1.312 1.312 0 0 0 0-1.818 1.226 1.226 0 0 0-1.768 0l-7.5 7.714a1.312 1.312 0 0 0 0 1.818l7.5 7.714c.488.502 1.28.502 1.768 0a1.312 1.312 0 0 0 0-1.818L13.018 16z" fill="#fff"></path>
		</symbol>
	
		<symbol id="quote" viewBox="0 0 52 37">
			<path d="M21.105 0H1.523C.682 0 0 .676 0 1.51v19.417c0 .834.682 1.51 1.523 1.51H9.79V35.49c0 .835.682 1.511 1.524 1.511h4.896c.32 0 .63-.1.89-.285a1.51 1.51 0 0 0 .554-.748l4.896-14.562c.052-.154.078-.316.078-.478V1.511C22.628.676 21.946 0 21.105 0zm29.372 0H30.895c-.841 0-1.523.676-1.523 1.51v19.417c0 .834.682 1.51 1.523 1.51h8.268V35.49c0 .835.682 1.511 1.523 1.511h4.895c.32 0 .632-.1.891-.285.26-.186.453-.447.555-.748l4.895-14.562c.051-.154.078-.316.078-.478V1.511C52 .676 51.318 0 50.477 0z" fill="#E2F1EE"></path>
		</symbol>
	
		<symbol id="right" viewBox="0 0 21 9">
			<path d="M19.5 3.634a1 1 0 0 1 0 1.732l-3.75 2.165a1 1 0 0 1-1.5-.866v-4.33a1 1 0 0 1 1.5-.866l3.75 2.165zM19 4.5H0"></path>
		</symbol>
	
		<symbol id="search" viewBox="0 0 20 20">
			<path d="M10.194 17.296a7.49 7.49 0 1 1 0-14.981 7.49 7.49 0 0 1 0 14.981zM4.984 15.404l-2.936 2.93" stroke="#fff" stroke-width="1.5" stroke-linecap="round" stroke-linejoin="round"></path>
		</symbol>
	
		<symbol id="select" viewBox="0 0 12 8">
			<g clip-path="url(#a)"><path d="M1 1l5 5 5-5" stroke="#294A41" stroke-width="1.5"></path></g><defs><clipPath id="a"><path fill="#fff" d="M0 0h12v8H0z"></path></clipPath></defs>
		</symbol>
	
		<symbol id="small-down" viewBox="0 0 24 24">
			<path d="M18.71 8.21a.999.999 0 0 0-1.42 0l-4.58 4.58a1 1 0 0 1-1.42 0L6.71 8.21a1 1 0 1 0-1.42 1.41l4.59 4.59a3 3 0 0 0 4.24 0l4.59-4.59a1 1 0 0 0 0-1.41z" fill="#303030"></path>
		</symbol>
	
		<symbol id="sun" viewBox="0 0 20 20">
			<path fill-rule="evenodd" clip-rule="evenodd" d="M14 9.994a3.998 3.998 0 0 1-4 3.997 3.998 3.998 0 1 1 0-7.995c2.21 0 4 1.79 4 3.998z" fill="#294A41"></path><path d="M10 1.999V.667m0 18.654V17.99m8-7.995h1.334M2 9.994H.667M3.334 3.33L2 2m16 0l-1.333 1.332M3.334 16.656L2 17.99m16 0l-1.333-1.333M14 9.994a3.998 3.998 0 0 1-4 3.997 3.998 3.998 0 1 1 0-7.995c2.21 0 4 1.79 4 3.998z" stroke="#294A41" stroke-linecap="round" stroke-linejoin="round"></path>
		</symbol>
	
		<symbol id="trigger" viewBox="0 0 18 18">
			<path d="M3.352 5.977c.2-.2.512-.218.733-.054l.063.054L9 10.83l4.852-4.852c.2-.2.512-.218.733-.054l.063.054c.2.2.218.512.054.733l-.054.063-5.25 5.25c-.2.2-.512.218-.733.054l-.063-.054-5.25-5.25a.563.563 0 0 1 0-.796z" fill="#1D1D1D"></path>
		</symbol>
	
</svg>
