<svg width="20" height="20" viewBox="0 0 20 20" fill="none" xmlns="http://www.w3.org/2000/svg">
<g clip-path="url(#clip0_400_1168)">
<path d="M14.9987 0H6.66536C5.85556 0.00106531 5.06361 0.238088 4.38637 0.682083C3.70913 1.12608 3.17595 1.7578 2.85203 2.5H1.66536C1.44435 2.5 1.23239 2.5878 1.07611 2.74408C0.919829 2.90036 0.832031 3.11232 0.832031 3.33333C0.832031 3.55435 0.919829 3.76631 1.07611 3.92259C1.23239 4.07887 1.44435 4.16667 1.66536 4.16667H2.4987V5.83333H1.66536C1.44435 5.83333 1.23239 5.92113 1.07611 6.07741C0.919829 6.23369 0.832031 6.44565 0.832031 6.66667C0.832031 6.88768 0.919829 7.09964 1.07611 7.25592C1.23239 7.4122 1.44435 7.5 1.66536 7.5H2.4987V9.16667H1.66536C1.44435 9.16667 1.23239 9.25446 1.07611 9.41074C0.919829 9.56702 0.832031 9.77899 0.832031 10C0.832031 10.221 0.919829 10.433 1.07611 10.5893C1.23239 10.7455 1.44435 10.8333 1.66536 10.8333H2.4987V12.5H1.66536C1.44435 12.5 1.23239 12.5878 1.07611 12.7441C0.919829 12.9004 0.832031 13.1123 0.832031 13.3333C0.832031 13.5543 0.919829 13.7663 1.07611 13.9226C1.23239 14.0789 1.44435 14.1667 1.66536 14.1667H2.4987V15.8333H1.66536C1.44435 15.8333 1.23239 15.9211 1.07611 16.0774C0.919829 16.2337 0.832031 16.4457 0.832031 16.6667C0.832031 16.8877 0.919829 17.0996 1.07611 17.2559C1.23239 17.4122 1.44435 17.5 1.66536 17.5H2.85203C3.17595 18.2422 3.70913 18.8739 4.38637 19.3179C5.06361 19.7619 5.85556 19.9989 6.66536 20H14.9987C16.1034 19.9987 17.1624 19.5593 17.9435 18.7782C18.7246 17.997 19.164 16.938 19.1654 15.8333V4.16667C19.164 3.062 18.7246 2.00296 17.9435 1.22185C17.1624 0.440735 16.1034 0.00132321 14.9987 0V0ZM17.4987 15.8333C17.4987 16.4964 17.2353 17.1323 16.7665 17.6011C16.2976 18.0699 15.6617 18.3333 14.9987 18.3333H6.66536C6.00232 18.3333 5.36644 18.0699 4.8976 17.6011C4.42876 17.1323 4.16536 16.4964 4.16536 15.8333V4.16667C4.16536 3.50363 4.42876 2.86774 4.8976 2.3989C5.36644 1.93006 6.00232 1.66667 6.66536 1.66667H14.9987C15.6617 1.66667 16.2976 1.93006 16.7665 2.3989C17.2353 2.86774 17.4987 3.50363 17.4987 4.16667V15.8333ZM10.832 10C11.4951 10 12.131 9.73661 12.5998 9.26777C13.0686 8.79893 13.332 8.16304 13.332 7.5C13.332 6.83696 13.0686 6.20107 12.5998 5.73223C12.131 5.26339 11.4951 5 10.832 5C10.169 5 9.5331 5.26339 9.06426 5.73223C8.59542 6.20107 8.33203 6.83696 8.33203 7.5C8.33203 8.16304 8.59542 8.79893 9.06426 9.26777C9.5331 9.73661 10.169 10 10.832 10ZM14.9987 15C14.9987 15.221 14.9109 15.433 14.7546 15.5893C14.5983 15.7455 14.3864 15.8333 14.1654 15.8333C13.9443 15.8333 13.7324 15.7455 13.5761 15.5893C13.4198 15.433 13.332 15.221 13.332 15C13.332 14.337 13.0686 13.7011 12.5998 13.2322C12.131 12.7634 11.4951 12.5 10.832 12.5C10.169 12.5 9.5331 12.7634 9.06426 13.2322C8.59542 13.7011 8.33203 14.337 8.33203 15C8.33203 15.221 8.24423 15.433 8.08795 15.5893C7.93167 15.7455 7.71971 15.8333 7.4987 15.8333C7.27768 15.8333 7.06572 15.7455 6.90944 15.5893C6.75316 15.433 6.66536 15.221 6.66536 15C6.8412 9.49333 14.8245 9.495 14.9987 15Z" fill="white"/>
</g>
<defs>
<clipPath id="clip0_400_1168">
<rect width="20" height="20" fill="white"/>
</clipPath>
</defs>
</svg>
