<svg width="20" height="20" viewBox="0 0 20 20" fill="none" xmlns="http://www.w3.org/2000/svg">
<g clip-path="url(#clip0_36_5913)">
<path d="M17.1143 10.5834L16.1727 10L17.1152 9.41669C17.7696 9.0276 18.2763 8.43231 18.556 7.72419C18.7311 7.25597 18.7963 6.75382 18.7467 6.25642C18.6971 5.75901 18.534 5.27963 18.27 4.8552C18.0059 4.43077 17.6479 4.07261 17.2236 3.80833C16.7993 3.54405 16.32 3.3807 15.8227 3.33085C15.0638 3.26878 14.3058 3.46048 13.6677 3.87585L13.3335 4.08335V3.47669C13.3476 2.63065 13.0484 1.80926 12.4936 1.17042C11.9387 0.531579 11.1673 0.120375 10.3277 0.0158531C9.86453 -0.0298707 9.39696 0.0218905 8.95504 0.167805C8.51312 0.313719 8.10666 0.550552 7.76181 0.863059C7.41696 1.17557 7.14137 1.55682 6.95278 1.98228C6.7642 2.40774 6.66679 2.86797 6.66683 3.33335V4.08335L6.33349 3.87502C5.69549 3.45847 4.93711 3.26587 4.17766 3.32752C3.6802 3.37693 3.20072 3.53991 2.77619 3.8039C2.35167 4.06789 1.99343 4.42584 1.7291 4.85015C1.46477 5.27447 1.3014 5.75382 1.2516 6.25124C1.20179 6.74867 1.26687 7.25089 1.44183 7.71919C1.72153 8.42754 2.22864 9.02289 2.88349 9.41169L3.82766 10L2.88516 10.5834C2.23074 10.9724 1.72398 11.5677 1.44433 12.2759C1.26903 12.7444 1.20376 13.247 1.25355 13.7448C1.30334 14.2426 1.46687 14.7223 1.7315 15.1469C1.99613 15.5715 2.3548 15.9296 2.7798 16.1935C3.2048 16.4575 3.68477 16.6202 4.18266 16.6692C4.93986 16.7311 5.69622 16.5403 6.33349 16.1267L6.66683 15.9167V16.6667C6.66683 17.5507 7.01802 18.3986 7.64314 19.0237C8.26826 19.6488 9.11611 20 10.0002 20C10.8842 20 11.7321 19.6488 12.3572 19.0237C12.9823 18.3986 13.3335 17.5507 13.3335 16.6667V15.9167L13.6668 16.1259C14.3037 16.5397 15.0597 16.7311 15.8168 16.67C16.3146 16.6208 16.7944 16.4579 17.2191 16.1938C17.6439 15.9298 18.0024 15.5717 18.2669 15.1472C18.5313 14.7226 18.6947 14.243 18.7444 13.7453C18.7941 13.2476 18.7288 12.7451 18.5535 12.2767C18.2743 11.5686 17.7682 10.973 17.1143 10.5834ZM16.8552 14.265C16.6312 14.6243 16.2738 14.88 15.8614 14.9758C15.4489 15.0716 15.0154 14.9997 14.656 14.7759L12.9402 13.7075C12.8139 13.629 12.6689 13.5857 12.5202 13.5821C12.3715 13.5786 12.2246 13.6148 12.0947 13.6872C11.9648 13.7595 11.8566 13.8654 11.7813 13.9936C11.7061 14.1219 11.6666 14.268 11.6668 14.4167V16.6667C11.6668 17.1087 11.4912 17.5326 11.1787 17.8452C10.8661 18.1578 10.4422 18.3334 10.0002 18.3334C9.55813 18.3334 9.13421 18.1578 8.82165 17.8452C8.50909 17.5326 8.33349 17.1087 8.33349 16.6667V14.4167C8.33346 14.2681 8.2937 14.1223 8.21835 13.9942C8.14299 13.8662 8.03477 13.7606 7.9049 13.6884C7.77503 13.6163 7.62823 13.5802 7.47971 13.5838C7.33118 13.5875 7.18633 13.6307 7.06016 13.7092L5.34433 14.7792C5.16639 14.89 4.96836 14.9647 4.76156 14.9989C4.55477 15.0332 4.34324 15.0264 4.13907 14.9789C3.9349 14.9315 3.74207 14.8442 3.57161 14.7222C3.40115 14.6003 3.25638 14.4459 3.14558 14.2679C3.03477 14.09 2.96011 13.892 2.92583 13.6852C2.89156 13.4784 2.89835 13.2669 2.94583 13.0627C2.9933 12.8585 3.08052 12.6657 3.20252 12.4952C3.32451 12.3248 3.47889 12.18 3.65683 12.0692L5.84433 10.7075C5.96492 10.6328 6.06443 10.5285 6.13344 10.4045C6.20245 10.2806 6.23868 10.1411 6.23868 9.99919C6.23868 9.85731 6.20245 9.71779 6.13344 9.59383C6.06443 9.46988 5.96492 9.36559 5.84433 9.29085L3.65683 7.93002C3.29746 7.70624 3.0417 7.34887 2.94583 6.93653C2.84995 6.52418 2.9218 6.09064 3.14558 5.73127C3.36935 5.3719 3.72672 5.11615 4.13907 5.02027C4.55141 4.92439 4.98496 4.99624 5.34433 5.22002L7.06016 6.28835C7.18615 6.36669 7.33077 6.40997 7.47909 6.41372C7.6274 6.41747 7.77402 6.38156 7.90381 6.3097C8.03361 6.23784 8.14186 6.13263 8.2174 6.00494C8.29294 5.87725 8.33301 5.73171 8.33349 5.58335V3.42252C8.3245 3.01681 8.45848 2.62086 8.71198 2.30398C8.96549 1.98709 9.32237 1.76947 9.72016 1.68919C9.95938 1.64842 10.2046 1.66038 10.4387 1.72424C10.6728 1.78809 10.8902 1.9023 11.0756 2.05888C11.261 2.21547 11.4099 2.41064 11.5121 2.63077C11.6142 2.85091 11.667 3.09069 11.6668 3.33335V5.58335C11.667 5.73185 11.7069 5.87761 11.7823 6.00553C11.8577 6.13345 11.9659 6.2389 12.0958 6.31096C12.2256 6.38302 12.3724 6.41908 12.5208 6.41539C12.6693 6.41171 12.814 6.36843 12.9402 6.29002L14.656 5.22252C14.8339 5.11172 15.032 5.03705 15.2388 5.00277C15.4456 4.9685 15.6571 4.9753 15.8613 5.02277C16.0654 5.07024 16.2582 5.15747 16.4287 5.27946C16.5992 5.40145 16.7439 5.55583 16.8547 5.73377C16.9655 5.91171 17.0402 6.10973 17.0745 6.31653C17.1088 6.52333 17.102 6.73486 17.0545 6.93903C17.007 7.1432 16.9198 7.33602 16.7978 7.50649C16.6758 7.67695 16.5214 7.82172 16.3435 7.93252L14.156 9.29419C14.0354 9.36892 13.9359 9.47321 13.8669 9.59717C13.7979 9.72112 13.7616 9.86065 13.7616 10.0025C13.7616 10.1444 13.7979 10.2839 13.8669 10.4079C13.9359 10.5318 14.0354 10.6361 14.156 10.7109L16.3435 12.0725C16.5215 12.1832 16.676 12.3278 16.7981 12.4982C16.9202 12.6687 17.0075 12.8615 17.055 13.0656C17.1025 13.2698 17.1094 13.4813 17.0751 13.6881C17.0408 13.8949 16.966 14.093 16.8552 14.2709V14.265Z"/>
</g>
<defs>
<clipPath id="clip0_36_5913">
<rect width="20" height="20" fill="white"/>
</clipPath>
</defs>
</svg>
