<svg width="32" height="32" viewBox="0 0 32 32" fill="none" xmlns="http://www.w3.org/2000/svg">
<path d="M4.2918 5.70798C4.19882 5.61501 4.12507 5.50463 4.07475 5.38315C4.02443 5.26167 3.99854 5.13147 3.99854 4.99998C3.99854 4.86849 4.02443 4.73829 4.07475 4.61681C4.12507 4.49534 4.19882 4.38496 4.2918 4.29198C4.38477 4.19901 4.49515 4.12525 4.61663 4.07493C4.73811 4.02462 4.86831 3.99872 4.9998 3.99872C5.13129 3.99872 5.26149 4.02462 5.38297 4.07493C5.50444 4.12525 5.61482 4.19901 5.7078 4.29198L15.9998 14.586L26.2918 4.29198C26.3848 4.19901 26.4952 4.12525 26.6166 4.07493C26.7381 4.02462 26.8683 3.99872 26.9998 3.99872C27.1313 3.99872 27.2615 4.02462 27.383 4.07493C27.5044 4.12525 27.6148 4.19901 27.7078 4.29198C27.8008 4.38496 27.8745 4.49534 27.9248 4.61681C27.9752 4.73829 28.0011 4.86849 28.0011 4.99998C28.0011 5.13147 27.9752 5.26167 27.9248 5.38315C27.8745 5.50463 27.8008 5.61501 27.7078 5.70798L17.4138 16L27.7078 26.292C27.8008 26.385 27.8745 26.4953 27.9248 26.6168C27.9752 26.7383 28.0011 26.8685 28.0011 27C28.0011 27.1315 27.9752 27.2617 27.9248 27.3831C27.8745 27.5046 27.8008 27.615 27.7078 27.708C27.6148 27.801 27.5044 27.8747 27.383 27.925C27.2615 27.9753 27.1313 28.0012 26.9998 28.0012C26.8683 28.0012 26.7381 27.9753 26.6166 27.925C26.4952 27.8747 26.3848 27.801 26.2918 27.708L15.9998 17.414L5.7078 27.708C5.61482 27.801 5.50444 27.8747 5.38297 27.925C5.26149 27.9753 5.13129 28.0012 4.9998 28.0012C4.86831 28.0012 4.73811 27.9753 4.61663 27.925C4.49515 27.8747 4.38477 27.801 4.2918 27.708C4.19882 27.615 4.12507 27.5046 4.07475 27.3831C4.02443 27.2617 3.99854 27.1315 3.99854 27C3.99854 26.8685 4.02443 26.7383 4.07475 26.6168C4.12507 26.4953 4.19882 26.385 4.2918 26.292L14.5858 16L4.2918 5.70798Z" fill="white"/>
</svg>
