<svg width="20" height="20" viewBox="0 0 20 20" fill="none" xmlns="http://www.w3.org/2000/svg">
<g clip-path="url(#clip0_36_5939)">
<path d="M19.1667 18.3333H4.16667C3.50363 18.3333 2.86774 18.0699 2.3989 17.6011C1.93006 17.1323 1.66667 16.4964 1.66667 15.8333V0.833333C1.66667 0.61232 1.57887 0.400358 1.42259 0.244078C1.26631 0.0877974 1.05435 0 0.833333 0C0.61232 0 0.400358 0.0877974 0.244078 0.244078C0.0877974 0.400358 0 0.61232 0 0.833333L0 15.8333C0.00132321 16.938 0.440735 17.997 1.22185 18.7782C2.00296 19.5593 3.062 19.9987 4.16667 20H19.1667C19.3877 20 19.5996 19.9122 19.7559 19.7559C19.9122 19.5996 20 19.3877 20 19.1667C20 18.9457 19.9122 18.7337 19.7559 18.5774C19.5996 18.4211 19.3877 18.3333 19.1667 18.3333Z"/>
<path d="M5.00032 16.6666C5.22134 16.6666 5.4333 16.5788 5.58958 16.4225C5.74586 16.2663 5.83366 16.0543 5.83366 15.8333V9.99994C5.83366 9.77893 5.74586 9.56697 5.58958 9.41069C5.4333 9.25441 5.22134 9.16661 5.00032 9.16661C4.77931 9.16661 4.56735 9.25441 4.41107 9.41069C4.25479 9.56697 4.16699 9.77893 4.16699 9.99994V15.8333C4.16699 16.0543 4.25479 16.2663 4.41107 16.4225C4.56735 16.5788 4.77931 16.6666 5.00032 16.6666Z" />
<path d="M8.33301 8.33333V15.8333C8.33301 16.0543 8.42081 16.2663 8.57709 16.4226C8.73337 16.5789 8.94533 16.6667 9.16635 16.6667C9.38736 16.6667 9.59932 16.5789 9.7556 16.4226C9.91189 16.2663 9.99968 16.0543 9.99968 15.8333V8.33333C9.99968 8.11232 9.91189 7.90036 9.7556 7.74408C9.59932 7.5878 9.38736 7.5 9.16635 7.5C8.94533 7.5 8.73337 7.5878 8.57709 7.74408C8.42081 7.90036 8.33301 8.11232 8.33301 8.33333Z" />
<path d="M12.5 10.8333V15.8333C12.5 16.0543 12.5878 16.2663 12.7441 16.4226C12.9004 16.5789 13.1123 16.6667 13.3333 16.6667C13.5544 16.6667 13.7663 16.5789 13.9226 16.4226C14.0789 16.2663 14.1667 16.0543 14.1667 15.8333V10.8333C14.1667 10.6123 14.0789 10.4004 13.9226 10.2441C13.7663 10.0878 13.5544 10 13.3333 10C13.1123 10 12.9004 10.0878 12.7441 10.2441C12.5878 10.4004 12.5 10.6123 12.5 10.8333Z" />
<path d="M16.667 7.49993V15.8333C16.667 16.0543 16.7548 16.2662 16.9111 16.4225C17.0674 16.5788 17.2793 16.6666 17.5003 16.6666C17.7213 16.6666 17.9333 16.5788 18.0896 16.4225C18.2459 16.2662 18.3337 16.0543 18.3337 15.8333V7.49993C18.3337 7.27892 18.2459 7.06695 18.0896 6.91067C17.9333 6.75439 17.7213 6.6666 17.5003 6.6666C17.2793 6.6666 17.0674 6.75439 16.9111 6.91067C16.7548 7.06695 16.667 7.27892 16.667 7.49993Z" />
<path d="M5.00015 7.49995C5.22114 7.49991 5.43307 7.41208 5.58931 7.25579L8.57765 4.26745C8.73648 4.11614 8.94744 4.03174 9.16681 4.03174C9.38619 4.03174 9.59715 4.11614 9.75598 4.26745L11.566 6.07745C12.0348 6.54613 12.6706 6.80942 13.3335 6.80942C13.9964 6.80942 14.6322 6.54613 15.101 6.07745L19.756 1.42245C19.9078 1.26528 19.9918 1.05478 19.9899 0.836285C19.988 0.617788 19.9003 0.408777 19.7458 0.254271C19.5913 0.0997638 19.3823 0.0121231 19.1638 0.0102244C18.9453 0.00832569 18.7348 0.092321 18.5776 0.244119L13.9226 4.89829C13.7664 5.05451 13.5545 5.14227 13.3335 5.14227C13.1125 5.14227 12.9006 5.05451 12.7443 4.89829L10.9343 3.08912C10.4655 2.62044 9.82972 2.35715 9.16681 2.35715C8.5039 2.35715 7.86813 2.62044 7.39931 3.08912L4.41098 6.07745C4.29447 6.194 4.21513 6.34247 4.183 6.50409C4.15086 6.66572 4.16736 6.83325 4.23042 6.9855C4.29347 7.13775 4.40026 7.26788 4.53727 7.35945C4.67427 7.45102 4.83536 7.49992 5.00015 7.49995Z" />
</g>
<defs>
<clipPath id="clip0_36_5939">
<rect width="20" height="20" fill="white"/>
</clipPath>
</defs>
</svg>
