<svg width="52" height="37" viewBox="0 0 52 37" fill="none" xmlns="http://www.w3.org/2000/svg">
<path d="M21.1047 0H1.52344C0.681994 0 0 0.676248 0 1.51061V20.9269C0 21.7614 0.681994 22.4375 1.52344 22.4375H9.79044V35.4894C9.79044 36.3235 10.4724 37 11.3139 37H16.2096C16.5293 37 16.8409 36.9002 17.1002 36.7148C17.3595 36.5294 17.5534 36.2678 17.6544 35.967L22.5498 21.4046C22.6017 21.2508 22.6283 21.0895 22.6283 20.927V1.51061C22.6283 0.676248 21.9462 0 21.1047 0ZM50.4767 0H30.8954C30.0538 0 29.3719 0.676248 29.3719 1.51061V20.9269C29.3719 21.7614 30.0538 22.4375 30.8954 22.4375H39.1628V35.4894C39.1628 36.3235 39.8447 37 40.6862 37H45.5813C45.9011 37 46.2127 36.9002 46.4721 36.7148C46.7315 36.5294 46.9254 36.2678 47.0266 35.967L51.9219 21.4046C51.9734 21.2508 52 21.0895 52 20.927V1.51061C52 0.676248 51.318 0 50.4766 0H50.4767Z" fill="#E2F1EE"/>
</svg>
